<svg xmlns="http://www.w3.org/2000/svg" xmlns:xlink="http://www.w3.org/1999/xlink" viewBox="0 0 419.62197 377.53953"><defs><style>.cls-1{isolation:isolate;}.cls-2{fill:#f0b33b;opacity:0.58;}.cls-14,.cls-15,.cls-18,.cls-2,.cls-20,.cls-24,.cls-26,.cls-27,.cls-33,.cls-34,.cls-36,.cls-42,.cls-7{mix-blend-mode:multiply;}.cls-14,.cls-15,.cls-18,.cls-27,.cls-3{opacity:0.5;}.cls-28,.cls-31,.cls-4{mix-blend-mode:screen;}.cls-5{fill:#383568;}.cls-6{fill:#ffc33b;}.cls-7{opacity:0.48;}.cls-8{fill:#84529c;}.cls-10,.cls-11,.cls-12,.cls-27,.cls-9{fill:none;stroke-linecap:round;stroke-linejoin:round;}.cls-9{stroke:#268e26;}.cls-10,.cls-11,.cls-12,.cls-9{stroke-width:0.62936px;}.cls-10{stroke:#fff;}.cls-11{stroke:#0032d0;}.cls-12{stroke:#d30000;}.cls-13{fill:#2b232d;}.cls-14,.cls-16{fill:#140716;}.cls-17{fill:#eae8e8;}.cls-18{fill:#61376b;}.cls-19,.cls-20,.cls-26,.cls-28{fill:#a62e3a;}.cls-20{opacity:0.35;}.cls-21,.cls-31{fill:#3d243e;}.cls-22{fill:#1d111e;}.cls-23,.cls-24{fill:#fabd3c;}.cls-24{opacity:0.9;}.cls-25{fill:#fff;}.cls-26{opacity:0.28;}.cls-27{stroke:#1d111e;stroke-width:0.67814px;}.cls-28{opacity:0.65;}.cls-29,.cls-30{mix-blend-mode:color-dodge;}.cls-29{fill:url(#radial-gradient);}.cls-30{fill:url(#radial-gradient-2);}.cls-31{opacity:0.43;}.cls-32{fill:#5e2600;}.cls-33{fill:#ffd47d;}.cls-34{opacity:0.78;}.cls-35{fill:#e17022;}.cls-36{opacity:0.2;}.cls-37,.cls-38,.cls-39{fill:#e4640a;}.cls-38{font-size:48.43782px;font-family:Montserrat-Bold, Montserrat;font-weight:700;}.cls-39{font-size:31.10745px;font-family:Montserrat-Regular, Montserrat;}.cls-40{fill:#e0d1d1;}.cls-41{fill:#6bb1a2;}.cls-42{fill:#583929;opacity:0.3;}</style><radialGradient id="radial-gradient" cx="335.23904" cy="263.76865" r="15.24768" gradientTransform="translate(-170.91228 -2.50364) rotate(-1.84702) scale(1 0.69369)" gradientUnits="userSpaceOnUse"><stop offset="0.16565" stop-color="#662346"/><stop offset="1" stop-color="#662346" stop-opacity="0"/></radialGradient><radialGradient id="radial-gradient-2" cx="409.67954" cy="261.844" r="15.2477" gradientTransform="translate(-170.83057 -0.69458) rotate(-1.84702) scale(1 0.69369)" xlink:href="#radial-gradient"/></defs><title>404</title><g class="cls-1"><g id="OBJECTS"><ellipse class="cls-2" cx="209.79647" cy="364.76723" rx="165.93129" ry="12.7723"/><g class="cls-3"><g class="cls-4"><path class="cls-5" d="M305.5749,105.3732c21.7581-11.5558,49.51429-13.5483,73.67379-8.7242,31.7441,6.3383,47.5017,5.7329,79.2457,12.0713,18.7113,3.7361,35.1134,27.7794,52.3608,35.9403,20.7236,9.8058,24.9595,18.6739,36.7543,38.3336,3.7874,6.313,17.9621,25.8467,18.8132,33.1593,1.4461,12.4245-1.5604,19.3619-.075,31.7818,1.6972,14.1901,3.1206,22.9289,4.839,37.1164,2.48931,20.552-9.7641,31.2375-8.773,51.9159.4236,8.8398-5.3993,20.4994-6.31369,29.302-.68471,6.5907-26.223,23.4404-30.03191,28.8624-16.8657,24.0089-15.8596,29.4674-42.6042,41.5339-11.3758,5.1324-15.312,15.584-27.6355,17.5542-10.7302,1.7154-21.6892.9328-32.5111-.0512-21.4411-1.9498-34.57329,4.5627-55.818,1.0718-18.0295-2.9626-41.2579-.9567-59.50459-.0107-8.5156.4415-22.8884-2.6601-31.2316-4.4207-7.3702-1.5553-27.3239-10.042-33.79-13.9056-13.8898-8.2991-28.075-22.9755-34.1467-37.9735-1.9992-4.9386-2.5771-26.6266-17.0341-47.1142-13.2333-18.7533-10.7499-18.5203-15.4956-59.0976-2.6662-22.7969,2.6172-52.0361,15.8427-70.7949,8.8073-12.492,12.1275-24.1013,13.9346-39.2786.6755-5.6733-.4334-11.4699.469-17.1117,2.6429-16.5214,20.45-25.3466,36.0066-31.5057,15.4657-6.1231,30.549-13.3177,46.3971-18.3692C300.8926,111.8505,296.5993,110.1403,305.5749,105.3732ZM198.2267,177.1667c-1.0276-6.3482-11.3079-6.0756-12.5562,0-.4324,2.1043-2.3385,4.3937-3.3602,6.3523q-2.0016,3.837-4.2322,7.538c-2.8534,4.7206-5.9076,9.2385-8.1032,14.3218-1.5632,3.6192-1.6083,7.5878,1.3624,10.5585,2.4911,2.491,7.5473,3.6845,10.5585,1.3624,6.1378-4.7332,11.4566-10.2815,14.6779-17.4454a36.0795,36.0795,0,0,0,3.286-11.165C200.3508,184.3265,198.8975,181.3101,198.2267,177.1667Zm50.1316-57.5938c-.0245,4.1635-2.9978,6.3237-6.6064,7.5888a15.65358,15.65358,0,0,1-7.9716.3808c-2.6204-.451-3.6851-4.4771-1.6266-6.1612,1.8955-1.5506,3.3298-2.8272,5.1084-4.1203.1504-.1094.8187-.5672.687-.4654a8.42519,8.42519,0,0,1,2.8604-1.6591,7.18762,7.18762,0,0,1,4.1748.0048A4.67478,4.67478,0,0,1,248.3583,119.5729Zm17.8201-5.8872a15.20482,15.20482,0,0,1-1.3588,1.8555,6.65171,6.65171,0,0,1-3.2205,1.6074,4.022,4.022,0,0,1-4.5414-5.9073,4.04062,4.04062,0,0,1,2.4033-1.848,8.34109,8.34109,0,0,1,3.7133-.0838,9.4054,9.4054,0,0,1,2.1454,1.1012A2.41706,2.41706,0,0,1,266.1784,113.6857Zm-93.0997,236.098c-3.2459-1.4464-5.2752-5.7569-6.3548-8.9776a32.88975,32.88975,0,0,1-1.5324-9.4668c-.1894-6.7354,10.5594-8.3124,11.8485-1.6036a23.52833,23.52833,0,0,0,2.0967,6.3123c1.4213,2.8108,3.034,5.1319,3.3302,8.3482C182.9467,349.606,176.9301,351.4998,173.0787,349.7837Zm17.905,11.0357a4.31851,4.31851,0,0,1-.492,2.062,5.55839,5.55839,0,0,1-2.3617,2.7564,5.75741,5.75741,0,0,1-6.3866-.4538,6.58236,6.58236,0,0,1-2.5486-3.5617,12.75736,12.75736,0,0,1-.3242-2.4473,6.032,6.032,0,0,1,10.2972-4.2653,6.21,6.21,0,0,1,1.7142,3.8282,8.04518,8.04518,0,0,1,.1612,1.2809A5.1565,5.1565,0,0,1,190.9837,360.8194Zm390.86269-89.1955a2.88757,2.88757,0,0,1-5.6422.7635c-2.5746-6.8649-3.2614-14.2159-4.862-21.3541-.69-3.0772,3.9535-5.3991,5.3375-2.2502C579.88109,256.0666,582.71079,263.5638,581.84639,271.6239Zm-4.1816,27.4082c.00821.0138.0129.0305.02121.0442C577.66579,299.0433,577.662,299.0331,577.66479,299.0321Zm7.14021-2.5666a6.22132,6.22132,0,0,1-2.04531,4.1599,2.773,2.773,0,0,1-4.2858-.5523c.38911.5243-.7798-1.052-.8091-1.041a6.5305,6.5305,0,0,1-.6611-1.6935,10.74152,10.74152,0,0,1-.2219-1.9848c-.0129-.1903-.0319-.3801-.0514-.5697-.0099-.0595-.02139-.1292-.0373-.2298a3.988,3.988,0,0,1,2.7083-4.7701,3.927,3.927,0,0,1,4.77,2.7084A13.16507,13.16507,0,0,1,584.805,296.4655Zm-30.98991,87.1081c-5.7994,7.9265-11.43209,14.7081-19.7426,20.0893-2.1747,1.4082-4.8841-1.3785-3.5369-3.537,5.2952-8.4843,12.20541-13.9625,20.5939-19.2378C552.71539,379.8908,554.997,381.9581,553.81509,383.5736Zm-47.6632-252.4299c-5.9113.4578-10.4678-3.8262-14.1683-7.8969a74.25061,74.25061,0,0,1-10.0273-14.14c-2.986-5.4219,4.7372-9.732,8.1848-4.7843a67.17148,67.17148,0,0,0,10.2578,11.4953c3.65711,3.2976,7.58411,6.0237,9.0766,10.9628A3.49132,3.49132,0,0,1,506.15189,131.1437Zm16.8677,11.3786c-1.0817-1.0566-2.1125-2.1502-3.1888-3.2153-.023-.0228-.4294-.3999-.5067-.4871a10.74033,10.74033,0,0,1-1.1854-.9421,5.1537,5.1537,0,0,1-1.1479-1.8025l-.0113-.0195a2.907,2.907,0,0,1,1.03051-3.9299q-.78346.6513.41449-.2989a2.91785,2.91785,0,0,1,1.1351-.4099,5.33384,5.33384,0,0,1,2.5538-.0194,12.08731,12.08731,0,0,1,3.07661,1.2696,9.25951,9.25951,0,0,1,4.55079,5.9424A4.05308,4.05308,0,0,1,523.01959,142.5223Zm21.249,17.7568a4.45558,4.45558,0,0,1-4.89159.3443,22.74828,22.74828,0,0,1-5.96591-5.1098,5.43494,5.43494,0,0,1,0-7.515c1.8328-1.9965,5.7102-2.1279,7.515,0a32.79478,32.79478,0,0,1,2.958,3.6594,22.12793,22.12793,0,0,1,1.9628,3.9916A4.34732,4.34732,0,0,1,544.26859,160.2791Z" transform="translate(-165.18903 -94.19877)"/></g></g><path class="cls-6" d="M520.17829,200.0676c-.7487-3.8521-6.2184-12.974-9.6394-14.8961s-14.1954-3.6682-16.18689-5.474c-4.75471-4.3113-7.43541-13.0363-1.02241-13.2948,6.0077-.2422,10.9801-5.6126,11.2075-7.8026s2.1402-7.6236-10.18509-17.6418c3.45579,8.0024,4.22539,13.2736,2.03159,18.3572-2.1938,5.0834-17.3124,6.624-14.5648,11.431,1.2547,2.1951.2415,12.666,2.0576,14.425,5.261,5.0953,16.1801,8.0923,16.147,10.2212-.0333,2.1286-2.74439,11.7101-6.5463,11.8497-3.8022.1393-6.5709-2.4831-6.9549-4.647a5.34715,5.34715,0,0,1,4.1792-6.3473c-3.1172-4.463-12.4768-1.5102-13.2637.9094-.787,2.42-.154,12.3703,4.00131,15.8875,4.15489,3.5174,8.76829,2.397,14.18619,2.9287,5.33781.5238,7.9872,4.1675,12.7311,1.666C513.10049,215.1377,521.20159,205.3322,520.17829,200.0676Z" transform="translate(-165.18903 -94.19877)"/><g class="cls-7"><path class="cls-8" d="M520.17829,200.0676c-.7487-3.8521-6.2184-12.974-9.6394-14.8961-.2152-.1209-.4597-.2411-.72889-.3607a5.624,5.624,0,0,0,1.19419,2.4712c.8265,1.0278,1.8647,1.8688,2.7023,2.8878a11.75612,11.75612,0,0,1,2.2086,9.3857,18.9109,18.9109,0,0,1-4.3826,8.7973c-1.9154,2.2782-4.5549,4.3646-7.5231,4.1492a18.28316,18.28316,0,0,0,2.75461-15.5718,44.61113,44.61113,0,0,1-3.596,8.1571,14.96749,14.96749,0,0,1-6.40521,6.0274c-4.7405,2.1218-10.7065.5022-14.1769-3.3618a15.77713,15.77713,0,0,1-3.6407-12.1137,3.34751,3.34751,0,0,0-1.5075,1.5183c-.787,2.42-.154,12.3703,4.00131,15.8875,4.15489,3.5174,8.76829,2.397,14.18619,2.9287,5.33781.5238,7.9872,4.1675,12.7311,1.666C513.10049,215.1377,521.20159,205.3322,520.17829,200.0676Z" transform="translate(-165.18903 -94.19877)"/><path class="cls-8" d="M483.87639,185.1715c2.3644,2.2897,5.8674,4.153,9.0093,5.7069-1.258-1.0235-2.4922-2.0772-3.6756-3.187-1.5565-1.4597-3.105-3.0935-3.6374-5.1601-.6563-2.5475.3535-5.2867-.2181-7.8544-.2467-1.1077-.7777-2.1317-1.0863-3.2239a3.94014,3.94014,0,0,1,.2784-3.2823c.8595-1.2502,2.5691-1.4663,4.0077-1.9487a9.04981,9.04981,0,0,0,4.7813-3.795c.052-.0841.0914-.1805.1398-.2692-4.9657,3.0458-13.8152,4.8124-11.6567,8.5887C483.07349,172.9416,482.06029,183.4125,483.87639,185.1715Z" transform="translate(-165.18903 -94.19877)"/></g><path class="cls-6" d="M216.8536,276.9889c.669-3.4029,5.555-11.4618,8.6112-13.1598,3.0559-1.6981,10.0803-3.915,11.8593-5.5102,4.2474-3.8088,6.6602-10.17.9312-10.3985-5.3666-.2139-7.2257-5.6307-7.429-7.5654-.203-1.9347-1.7277-9.277,9.0987-15.5855-3.0871,7.0697-3.7746,11.7266-1.8148,16.2175s15.4654,5.8518,13.011,10.0985c-1.121,1.9393-.2157,11.1897-1.8382,12.7436-3.1572,3.0241-8.595,5.2113-11.8159,6.8915-1.5736.8211-1.4414,4.3632-1.4318,4.9804.0296,1.8807,1.2751,7.5031,4.6712,7.6263,3.3963.1233,5.8698-2.1936,6.213-4.1052a4.72261,4.72261,0,0,0-3.7334-5.6073c2.7846-3.943,11.1457-1.3344,11.8489.8032.7028,2.1379.1374,10.9284-3.5745,14.0358-3.7118,3.1072-7.8331,2.1174-12.673,2.5871-4.7683.463-7.1349,3.6817-11.373,1.4718C223.1764,290.3024,215.9394,281.64,216.8536,276.9889Z" transform="translate(-165.18903 -94.19877)"/><g class="cls-7"><path class="cls-8" d="M216.8536,276.9889c.669-3.4029,5.555-11.4618,8.6112-13.1598.1921-.1066.4107-.213.6511-.3184a4.94585,4.94585,0,0,1-1.0669,2.1829c-.7381.908-1.6658,1.6511-2.4139,2.5514a10.29775,10.29775,0,0,0-1.9731,8.2915,16.634,16.634,0,0,0,3.9151,7.772c1.711,2.0125,4.0689,3.8559,6.7205,3.6654a16.006,16.006,0,0,1-2.4605-13.7566,39.18778,39.18778,0,0,0,3.212,7.2062,13.30957,13.30957,0,0,0,5.7222,5.3248c4.2348,1.8747,9.5644.4437,12.6644-2.9697a13.83379,13.83379,0,0,0,3.2526-10.7019,2.97626,2.97626,0,0,1,1.3467,1.3413c.7028,2.1379.1374,10.9284-3.5745,14.0358-3.7118,3.1072-7.8331,2.1174-12.673,2.5871-4.7683.463-7.1349,3.6817-11.373,1.4718C223.1764,290.3024,215.9394,281.64,216.8536,276.9889Z" transform="translate(-165.18903 -94.19877)"/><path class="cls-8" d="M249.283,263.8291a32.85166,32.85166,0,0,1-8.0483,5.0419c1.1241-.9042,2.2266-1.8353,3.2836-2.8155a10.08823,10.08823,0,0,0,3.2491-4.5587c.5863-2.2505-.3154-4.6704.1951-6.9388.2202-.9786.6948-1.8834.9705-2.8481a3.449,3.449,0,0,0-.2486-2.9c-.7678-1.1044-2.2953-1.2951-3.5803-1.7213a8.072,8.072,0,0,1-4.2715-3.3526c-.0464-.0745-.0816-.1595-.1247-.238,4.4358,2.691,12.3415,4.2514,10.4133,7.5875C250.0002,253.0248,250.9055,262.2752,249.283,263.8291Z" transform="translate(-165.18903 -94.19877)"/></g><path class="cls-9" d="M214.3989,423.4895a6.09116,6.09116,0,0,0-.3052-3.381" transform="translate(-165.18903 -94.19877)"/><path class="cls-10" d="M213.7711,423.7294s-.3415-2.6122-1.7954-2.8885" transform="translate(-165.18903 -94.19877)"/><path class="cls-11" d="M213.0032,423.7997s-.7225-2.2035-2.1832-2.0208" transform="translate(-165.18903 -94.19877)"/><path class="cls-12" d="M215.4299,423.9112s-.2362-2.7731,1.1981-3.5853" transform="translate(-165.18903 -94.19877)"/><path class="cls-13" d="M216.0826,422.5298l-3.8897.9326c.1509.6309,3.8418,15.5166,17.0083,22.793,8.6387,4.7724,19.2197,5.0947,31.4502.956,36.5098-12.3564,81.40329-2.2402,81.8526-2.1367l.89989-3.8974c-1.8785-.4346-46.42919-10.4815-84.03469,2.2451-11.106,3.7578-20.5933,3.54-28.2012-.6504C219.5513,436.3735,216.1163,422.6675,216.0826,422.5298Z" transform="translate(-165.18903 -94.19877)"/><path class="cls-13" d="M212.1929,423.4624a1.1228,1.1228,0,0,0-.497-.8325c1.0208.2084,1.0417.4163,1.0417.4163l.4005-1.2472.4168.9849s.8459-1.4128,1.6618-1.654a4.77151,4.77151,0,0,0,0,1.25l1.4113-1.1041a1.30241,1.30241,0,0,0-.5454,1.254c.03.9543-.4061,1.4335-.6672,1.5168a15.76138,15.76138,0,0,1-1.9487.2708C213.3626,424.2966,212.1929,423.4624,212.1929,423.4624Z" transform="translate(-165.18903 -94.19877)"/><path class="cls-14" d="M261.6884,446.1691c-12.23,4.14-22.81,3.82-31.45-.96-10.55-5.83-15.02-16.56-16.45-20.91-.15-.46-.27-.84-.35-1.14-.12-.41-.18-.67-.2-.74a.93384.93384,0,0,0-.15-.45l-.35,1.08s-.01-.06-.16-.14a2.92137,2.92137,0,0,0-.88-.28,1.12619,1.12619,0,0,1,.49.83c.16.63,3.85,15.52,17.01,22.8,8.64,4.77,19.22,5.09,31.45.95,36.51-12.35,81.41-2.24,81.86-2.13l.28-1.21C336.72839,442.5991,295.5884,434.6891,261.6884,446.1691Z" transform="translate(-165.18903 -94.19877)"/><path class="cls-10" d="M205.4251,414.0258a7.78194,7.78194,0,0,1,4.3333,3.5" transform="translate(-165.18903 -94.19877)"/><path class="cls-10" d="M210.6334,411.6091s0,3.875,1.0625,5.5417" transform="translate(-165.18903 -94.19877)"/><path class="cls-10" d="M216.1647,411.7966s-2.4434,2.5-2.3936,5.2188" transform="translate(-165.18903 -94.19877)"/><path class="cls-13" d="M467.00329,447.0378l-.0489-4c26.5332-.3174,45.5391-7.7705,52.14361-20.4473,3.90329-7.4912,2.98529-16.4179-2.51661-24.4921-12.9297-18.9707-43.9893-2.2569-44.3018-2.085l-1.9219-3.5078c1.40531-.7686,34.5821-18.5967,49.5284,3.3408,6.3593,9.3301,7.3652,19.752,2.7597,28.5918C518.35089,432.6814,505.41149,446.5779,467.00329,447.0378Z" transform="translate(-165.18903 -94.19877)"/><g class="cls-15"><path class="cls-16" d="M520.46329,427.9308c-5.94,8.1601-20.08,18.71-53.46,19.1101l-.05-4c.4001,0,.8-.01,1.19-.0201l.0301,2.5201C499.53329,445.1609,513.91339,435.8308,520.46329,427.9308Z" transform="translate(-165.18903 -94.19877)"/><path class="cls-16" d="M472.28329,396.0108l-1.9299-3.51c.1599-.0799.6999-.37,1.56-.79l1.5299,2.8c.32-.1699,31.38-16.88,44.3,2.0901,5.51,8.07,6.4201,17,2.52,24.49a24.62435,24.62435,0,0,1-3.02,4.4799,23.75543,23.75543,0,0,0,1.85-2.9799c3.91-7.49,2.99-16.42-2.51-24.49C503.65329,379.1308,472.59329,395.8409,472.28329,396.0108Z" transform="translate(-165.18903 -94.19877)"/></g><path class="cls-17" d="M426.02,349.46c-2.28,10.17-15.68,13.46-54.66,12.87-38.97.59-52.38-2.7-54.65-12.87-2.26-13.09,3.26-27.6,11.94-43.58a91.1313,91.1313,0,0,0,6.28-14.64c1.25-3.77,2.23-7.39,2.96-10.65.47-2,.83-3.87,1.14-5.56.2-1.18.38-2.26.53-3.24v-.01c.04-.22.07-.43.09-.65.08-.49.14-.96.2-1.39.05-.44.1-.84.14-1.2.21-1.77.27-2.78.27-2.78l4.5-.15,2.01-.08,4.57-.16,15.87-.57c0-.19-.01-.3-.01-.3l4.16.16,4.16-.16s-.01.11-.01.3l23.08.83,2.81.1h.01l1.05.03s.01.22.05.6v.02c.02.19.04.44.06.73.05.55.12,1.27.22,2.15.04.35.08.73.13,1.14.14,1.22.32,2.65.55,4.26v.01c.08.53.16,1.09.25,1.66q.27,1.785.63,3.81c.56,3.21,1.28,6.83,2.19,10.71.04.12.07.26.1.39q.255,1.08.54,2.19c1,3.96,2.21,8.17,3.65,12.45C415.93,321.03,428.19,336.9,426.02,349.46Z" transform="translate(-165.18903 -94.19877)"/><path class="cls-17" d="M314.4521,214.7233c-1.7242-4.3023-2.2311-9.2239-2.9985-16.7712-1.1345-11.1574-1.6875-20.409-2.1975-26.1165-.6551-7.3298,3.362-5.8864,6.2345-4.7135,5.1396,2.0986,12.412,7.0284,16.10759,9.6911,5.7612,4.151,14.7973,15.9308,14.5583,21.39C340.43749,205.3998,330.11589,212.7658,314.4521,214.7233Z" transform="translate(-165.18903 -94.19877)"/><path class="cls-18" d="M346.15559,198.2049c-.2797.3455-.5647.6977-.86259,1.0453-1.91151-5.9846-9.18241-15.032-14.08611-18.565-3.6917-2.6651-10.96719-7.5898-16.105-9.689-2.1075-.857-4.8162-1.866-5.8668.5341-.521-6.9802,3.4198-5.5664,6.2564-4.4062,5.1379,2.0992,12.41329,7.0239,16.10509,9.689C337.358,180.9661,346.39339,192.7468,346.15559,198.2049Z" transform="translate(-165.18903 -94.19877)"/><path class="cls-19" d="M319.3965,213.8938c-1.2578-3.3164-.8142-7.6314-1.5256-13.3883-1.0518-8.5107-1.6671-15.5573-2.1586-19.909-.6312-5.5886,2.068-4.3833,4.0019-3.4146,3.46019,1.7334,8.40919,5.6762,10.92829,7.7995,3.9271,3.3101,11.8412,13.0861,11.83,17.2289C338.87879,207.5261,329.71709,212.8277,319.3965,213.8938Z" transform="translate(-165.18903 -94.19877)"/><path class="cls-20" d="M342.40119,201.506A55.18815,55.18815,0,0,0,333.48,190.9838c-2.51761-2.1245-7.468-6.0637-10.9297-7.7969-1.93-.9695-4.6306-2.176-3.9999,3.4093.4891,4.3546,1.1041,11.4039,2.1576,19.9138.3328,2.6771.4142,5.039.5331,7.1386-.6088.1008-1.2266.178-1.8457.2432-1.2539-3.3143-.8107-7.6288-1.523-13.389-1.0535-8.51-1.6678-15.5532-2.163-19.907-.6307-5.5854,2.0692-4.385,4.0053-3.4161,3.46159,1.7332,8.40669,5.6792,10.93039,7.8029C334.36019,188.118,341.655,197.052,342.40119,201.506Z" transform="translate(-165.18903 -94.19877)"/><path class="cls-21" d="M401.13869,191.1715c2.2217,8.9782,29.7451,24.961,33.5959,21.6598,2.78741-2.3896,3.1352-16.7279,3.2358-20.3785.3085-11.1885-1.1156-18.9986-.12239-23.2014s-2.25651-8.2403-9.36671-3.8483S408.916,179.2083,401.13869,191.1715Z" transform="translate(-165.18903 -94.19877)"/><path class="cls-21" d="M401.13869,191.1715c2.2217,8.9782,29.7451,24.961,33.5959,21.6598,2.78741-2.3896,3.1352-16.7279,3.2358-20.3785.3085-11.1885-1.1156-18.9986-.12239-23.2014s-2.25651-8.2403-9.36671-3.8483S408.916,179.2083,401.13869,191.1715Z" transform="translate(-165.18903 -94.19877)"/><path class="cls-17" d="M401.13869,191.1715c2.2217,8.9782,29.7451,24.961,33.5959,21.6598,2.78741-2.3896,3.1352-16.7279,3.2358-20.3785.3085-11.1885-1.1156-18.9986-.12239-23.2014s-2.25651-8.2403-9.36671-3.8483S408.916,179.2083,401.13869,191.1715Z" transform="translate(-165.18903 -94.19877)"/><path class="cls-18" d="M434.73339,212.8289a2.72352,2.72352,0,0,1-1.9559.4244c1.7576-4.7068,2.0138-15.3899,2.1066-18.4718.3065-11.1871-1.1163-18.9956-.1269-23.1964.9962-4.2061-2.2567-8.2412-9.3673-3.8539-1.5951.9878-3.4604,2.2246-5.4834,3.691a95.68312,95.68312,0,0,1,8.5738-6.02c7.1113-4.3934,10.3636-.3522,9.368,3.8479-.9961,4.2062.4328,12.0153.1202,23.2018C437.86789,196.1034,437.52329,210.4393,434.73339,212.8289Z" transform="translate(-165.18903 -94.19877)"/><path class="cls-19" d="M404.07669,196.057c1.3238,5.3499,19.4479,17.0483,21.7425,15.0811,1.661-1.4239,4.95681-13.175,5.7694-21.3973.6559-6.6372-.6647-11.3209-.0729-13.8252s-1.34469-4.9103-5.5815-2.2932S408.711,188.9284,404.07669,196.057Z" transform="translate(-165.18903 -94.19877)"/><path class="cls-20" d="M431.59029,189.7426c-.8142,8.2231-4.10829,19.9709-5.77129,21.3935a.953.953,0,0,1-.54221.2096,87.5568,87.5568,0,0,0,3.4394-16.2166c.6561-6.6382-.6616-11.3206-.0743-13.8257.5933-2.5045-1.3438-4.9118-5.5795-2.2923-3.4572,2.133-12.7622,10.9933-18.5818,18.0547a4.71551,4.71551,0,0,1-.4022-1.0091c4.63061-7.131,17.617-19.8193,21.8582-22.4321,4.2357-2.6196,6.1728-.2122,5.57941,2.2923C430.92279,178.4214,432.24649,183.1044,431.59029,189.7426Z" transform="translate(-165.18903 -94.19877)"/><path class="cls-17" d="M443.51,238.56a32.67434,32.67434,0,0,1-5.15,18.92,41.97857,41.97857,0,0,1-8.1,9.29c-.62.53-1.24,1.05-1.89,1.55-.64.51-1.29,1-1.96,1.47-.5.35-1.01.71-1.53,1.05s-1.04.68-1.57,1q-2.46,1.53-5.07,2.82c-.09.04-.19.09-.29.13-.19.09-.39.17-.61.26h-.01c-.14.05-.28.11-.43.16-.13.05-.26.09-.4.14q-.615.21-1.35.42-.48.135-1.02.27c-.26.07-.54.14-.82.21-.17.04-.36.08-.54.13a.01385.01385,0,0,0-.02,0c-.49.11-1.01.23-1.55.34-.63.13-1.3.26-2,.39-.89.18-1.82.34-2.79.5h-.01c-.29.05-.59.09-.89.14q-.78.12-1.59.24c-.04.01-.08.01-.12.02a.516.516,0,0,0-.11.02h-.03c-.45.07-.92.13-1.39.2-.56.08-1.13.15-1.7.23l-.21.03c-.02,0-.05.01-.07.01-.84.1-1.69.21-2.56.31-.5.06-1,.12-1.51.18-.48.05-.97.1-1.46.15l-1.14.12c-.74.07-1.49.15-2.24.22-.65.06-1.29.11-1.95.17-.32.03-.65.06-.98.08-.98.08-1.97.16-2.97.23-.67.05-1.34.1-2.01.14-.91.06-1.82.12-2.74.17-.41.02-.83.04-1.24.07-.36.01-.72.03-1.09.05-.6.03-1.2.05-1.81.08-.49.02-.97.04-1.47.06-.6.02-1.2.04-1.8.05-.42.02-.84.03-1.27.04l-1.56.03a142.28162,142.28162,0,0,1-23.97-1.23c-.33-.05-.65-.11-.98-.16-.31-.04-.62-.08-.93-.13-.8-.11-1.6-.21-2.4-.31a.195.195,0,0,1-.08-.01c-.12-.02-.24-.03-.36-.05l-1.56-.18h-.01c-.55-.07-1.1-.13-1.65-.2-.53-.06-1.06-.13-1.6-.2-.48-.07-.95-.13-1.42-.2l-.18-.03c-.53-.08-1.06-.16-1.59-.26-.53-.08-1.06-.18-1.59-.29-.51-.11-1.01-.22-1.52-.34-.03-.01-.07-.01-.1-.02-.44-.11-.88-.22-1.32-.35a1.33216,1.33216,0,0,1-.19-.05,33.76245,33.76245,0,0,1-9.12-4.16c-.46-.3-.92-.61-1.36-.93s-.86-.65-1.28-.98c-.01-.01-.03-.02-.04-.03-.5-.38-.99-.79-1.46-1.22-.09-.08-.18-.16-.27-.25a38.25243,38.25243,0,0,1-5.12-5.63,17.02608,17.02608,0,0,1-2.24-4.1c-2.44-6.27-1.76-14.04-1.06-20.34.33-3.05.79-6.06,1.24-9.09a48.88328,48.88328,0,0,1,5.58-16.7,38.50952,38.50952,0,0,1,4.44-6.38h.01a30.14728,30.14728,0,0,1,2.12-2.26,34.46475,34.46475,0,0,1,6.05-4.75,69.91911,69.91911,0,0,1,10.49-5.29c.49-.2.98-.4,1.48-.59h.01c1.12-.44,2.27-.86,3.44-1.26.73-.25,1.48-.5,2.24-.73,0,0,.01-.01.01,0a108.368,108.368,0,0,1,18.18-3.99h.01a118.25665,118.25665,0,0,1,16.8-1.03c2.7.03,5.41.08,8.11.2a100.90907,100.90907,0,0,1,15.43,1.71h.01a59.63914,59.63914,0,0,1,5.78,1.47h.01c.52.15,1.04.32,1.55.49a43.77361,43.77361,0,0,1,14.35,7.97q1.665,1.425,3.25,3.07c.31.32.61.65.91.98.02.01.03.04.05.05.11.12.21.24.31.37.13.14.26.29.38.44.32.36.62.73.93,1.12v.01h.01c.01.01.02.02.02.03.33.41.65.82.97,1.26.17.23.33.45.5.69l.03.03c.05.07.11.15.16.22.2.28.38.57.58.86.19.27.38.56.56.85.11.16.22.33.32.5.09.14.18.28.28.43.1.17.2.34.3.52.24.4.48.79.71,1.2v.01c.17.3.33.59.49.88.92,1.66,1.75,3.28,2.51,4.86.59,1.24,1.13,2.46,1.62,3.65.25.6.48,1.19.71,1.78.23.58.44,1.17.64,1.74.2.58.39,1.16.57,1.72.22.7.42,1.4.61,2.09s.37,1.37.52,2.05c.31,1.34.55,2.66.74,3.94.04.28.08.55.11.84v.01c.04.27.07.56.09.84.01.07.02.15.03.23l.03.24c0,.12.01.23.02.34.01.12.02.24.03.35Q443.48,237.78,443.51,238.56Z" transform="translate(-165.18903 -94.19877)"/><path class="cls-22" d="M361.75929,235.3894l-.2756-2.9917c-.0948-1.5897-1.1399-1.7547-1.7104-.1167l-.17229.7424c-.39911,2.1848-1.18231,2.7898-3.46841,2.363l-42.04579-6.2081c-1.7674-.3679-1.7674,2.8785-.4367,3.0531l44.91039,6.214C360.36209,238.6947,361.77149,237.7383,361.75929,235.3894Z" transform="translate(-165.18903 -94.19877)"/><path class="cls-23" d="M359.99069,238.6328c-1.8805,31.4136-49.10459,26.6663-45.53519-6.3004Z" transform="translate(-165.18903 -94.19877)"/><path class="cls-24" d="M359.82639,240.4628c-3.5153,28.9219-47.46879,24.3386-45.49749-6.64C316.117,259.7909,353.14979,263.7822,359.82639,240.4628Z" transform="translate(-165.18903 -94.19877)"/><path class="cls-22" d="M353.59419,237.5241c-1.3544,22.6253-35.36689,19.2061-32.79609-4.5378Z" transform="translate(-165.18903 -94.19877)"/><path class="cls-25" d="M326.58559,238.9332c-6.04339,2.1608-8.55029,6.5214-5.92619,7.1341s6.80689-3.9303,7.73709-4.8198C330.29009,239.4366,329.78129,237.7906,326.58559,238.9332Z" transform="translate(-165.18903 -94.19877)"/><path class="cls-25" d="M328.12859,245.3674c-4.1318,1.4773-5.84579,4.4587-4.0517,4.8776s4.6538-2.6871,5.2898-3.2953C330.66129,245.7116,330.31349,244.5863,328.12859,245.3674Z" transform="translate(-165.18903 -94.19877)"/><path class="cls-22" d="M428.73279,231.913l-44.8944,6.2118c-2.8139.3591-3.8962-.555-3.7499-3.5824.0297-.615.2259-2.4523.2259-2.4523.1051-1.832,1.4677-1.0628,1.68761-.1152h0c.41139,3.2883,2.42059,3.3575,4.48149,3.0531l42.0067-6.2023C430.73539,228.5379,430.87409,231.683,428.73279,231.913Z" transform="translate(-165.18903 -94.19877)"/><path class="cls-23" d="M381.87689,238.3962c1.8805,31.4137,49.1046,26.6663,45.5352-6.3004Z" transform="translate(-165.18903 -94.19877)"/><path class="cls-24" d="M382.41339,242.5012c7.8607,21.7387,43.746,17.2103,45.1497-8.5319C429.101,263.7639,387.88169,268.7744,382.41339,242.5012Z" transform="translate(-165.18903 -94.19877)"/><path class="cls-22" d="M388.27339,237.2875c1.3543,22.6253,35.367,19.2061,32.7961-4.5378Z" transform="translate(-165.18903 -94.19877)"/><path class="cls-25" d="M415.282,238.6966c6.04329,2.1608,8.55029,6.5215,5.92619,7.1342s-6.8068-3.9303-7.737-4.8199C411.57739,239.2,412.08639,237.5541,415.282,238.6966Z" transform="translate(-165.18903 -94.19877)"/><path class="cls-25" d="M413.739,245.1309c4.13179,1.4772,5.84569,4.4586,4.05169,4.8775s-4.6538-2.6871-5.2898-3.2953C411.20619,245.4751,411.55419,244.3496,413.739,245.1309Z" transform="translate(-165.18903 -94.19877)"/><path class="cls-19" d="M375.33489,246.7905c-.54689-1.333-8.9165-1.3332-9.7763.3512-.6692,1.3108,2.77841,5.9141,4.8839,5.9061C372.05979,253.0416,376.05179,248.5377,375.33489,246.7905Z" transform="translate(-165.18903 -94.19877)"/><path class="cls-26" d="M370.44559,253.0471c-1.6662.0061-4.1745-2.8744-4.8153-4.7298,1.0558,1.4403,2.58771,2.7891,3.7289,2.7829,1.2999-.0061,4.1195-2.9049,4.8214-4.9495.61641.1587,1.0435.3723,1.15341.6409C376.05419,248.537,372.06279,253.041,370.44559,253.0471Z" transform="translate(-165.18903 -94.19877)"/><path class="cls-27" d="M465.51,256.84c-1.22-.2-2.65-1.06-2.41-2.27a1.77539,1.77539,0,0,1,1.53-1.27,4.63467,4.63467,0,0,1,2.07.34c1.64.56,3.49,1.76,3.31,3.49a2.87319,2.87319,0,0,1-1.65,2.15,8.51875,8.51875,0,0,1-2.73.7c-2.37.34-5.09.57-6.83-1.07a5.59763,5.59763,0,0,0-1.58-1.38c-1.35-.53-2.66.81-3.53,1.97-.87,1.17-2.27,2.46-3.58,1.81-.89-.44-1.16-1.56-1.77-2.34a3.21479,3.21479,0,0,0-4.01-.81c-.51.29-.93.71-1.45.99a1.46035,1.46035,0,0,1-1.64-.06,4.14168,4.14168,0,0,1-.49-.72,2.558,2.558,0,0,0-2.32-.9.17018.17018,0,0,0-.07.01,10.13688,10.13688,0,0,0-2.42.71,26.73942,26.73942,0,0,1-5.31,1.22c-1.44.19-2.9.31-4.36.42-1.14.1-2.28.18-3.4.3-8.39.85-13.81,4.1-22.07,2.45m62.73,9.89a5.13352,5.13352,0,0,0,2.95-.61,1.96526,1.96526,0,0,0,.72-2.64,2.53543,2.53543,0,0,0-1.44-.83,12.18245,12.18245,0,0,0-8.64.77,7.80519,7.80519,0,0,1-3.16,1.18c-1.55.02-2.9-1.18-4.45-1.25-1.42-.07-2.69.81-4.03,1.28a7.52309,7.52309,0,0,1-6.99-1.12c-.64-.5-1.33-1.14-2.13-.99a2.19757,2.19757,0,0,0-.79.37c-1.34.92-2.54,2.25-4.15,2.45a7.13847,7.13847,0,0,1-3.4-.74c-.5-.19-1.03-.38-1.61-.55l-.01-.01c-1.03-.31-2.17-.6-3.4-.86-1.01-.22-2.08-.42-3.19-.6a101.13259,101.13259,0,0,0-19.01-1.33m-1.43,4.67c.04.01.07.01.11.02.73.15,1.58.3,2.51.45h.02c.58.09,1.2.19,1.84.29,1.11.17,2.29.35,3.5.54.85.14,1.73.29,2.6.44h.02a61.31813,61.31813,0,0,1,7.36,1.65h.01a18.58045,18.58045,0,0,1,2.5.94c2.06.99,4.16,2.24,6.45,2.1,1.22-.07,2.42-.55,3.63-.38,1.62.22,2.94,1.55,4.57,1.72,1.29.12,2.56-.51,3.85-.41a23.73888,23.73888,0,0,1,2.61.66c1.62.31,3.69-.07,4.56,1.32.34.53.39,1.2.71,1.74a2.90668,2.90668,0,0,0,1.2,1.05c2.37,1.27,5.25.93,7.91.56.73-.1,1.59-.3,1.88-.99a1.39986,1.39986,0,0,0-.82-1.68,2.65363,2.65363,0,0,0-2.01.11" transform="translate(-165.18903 -94.19877)"/><path class="cls-28" d="M371.23979,246.5047a6.44054,6.44054,0,0,0-4.8705.7425c-.2518.1771-.1662.6836.1748.6927a10.21742,10.21742,0,0,0,2.1768-.4085,20.07678,20.07678,0,0,1,2.4014-.2346C371.51239,247.2693,371.64049,246.6238,371.23979,246.5047Z" transform="translate(-165.18903 -94.19877)"/><ellipse class="cls-29" cx="170.05" cy="169.56986" rx="16.84663" ry="11.56027"/><ellipse class="cls-30" cx="244.49049" cy="167.64523" rx="16.84662" ry="11.5603"/><path class="cls-31" d="M357.58849,233.1846c-3.9336.0389-7.9286-1.2492-11.76549-2.0666-3.69661-.7874-7.41811-1.7548-11.17091-2.2234-.5229-.0653-.5886.7459-.1204.8898,3.9427,1.2117,8.0959,1.8912,12.127,2.7541q2.8971.62025,5.7944,1.2403c1.688.3613,3.5672.9592,5.2767.45A.53408.53408,0,0,0,357.58849,233.1846Z" transform="translate(-165.18903 -94.19877)"/><path class="cls-31" d="M427.92959,226.9979c-7.2259.213-14.4984,1.7132-21.6423,2.7348l-10.9862,1.5711c-1.9668.2812-11.68209,2.5555-11.59609-.9912.01459-.6041-.98941-.7715-1.08171-.1464-.5168,3.4975,4.0521,3.3378,6.311,3.165,4.2228-.3232,8.4356-1.1143,12.626-1.7135,8.7601-1.2527,17.53771-2.8177,26.3693-3.4374C428.68059,228.1276,428.69759,226.9752,427.92959,226.9979Z" transform="translate(-165.18903 -94.19877)"/><path class="cls-17" d="M359.77059,191.0704c3.1658-4.5344,11.1192-11.0591,13.2938-9.3592.58561.5479-2.1931,3.0792-2.5741,4.9128,2.9582-2.1182,9.7459-6.9677,9.6835-4.9489.0624,1.0178-1.3843,2.9552-2.0764,4.4328,1.5867-1.4826,9.0007-5.8206,9.2998-3.6871a16.11533,16.11533,0,0,1-.4629,6.3962q-8.1219,1.01145-16.2437,2.0231Z" transform="translate(-165.18903 -94.19877)"/><path class="cls-18" d="M443.51,238.56a32.67434,32.67434,0,0,1-5.15,18.92,41.97857,41.97857,0,0,1-8.1,9.29c-.62.53-1.24,1.05-1.89,1.55-.64.5-1.3.99-1.97,1.46-.5.36-1.01.71-1.52,1.06-.52.34-1.04.68-1.57,1q-2.46,1.515-5.07,2.81c-.09.05-.19.09-.29.14-.19.09-.39.17-.61.26h-.01c-.14.05-.28.11-.43.16-.13.05-.26.09-.4.14q-.615.21-1.35.42-.48.135-1.02.27c-.26.07-.54.14-.82.21-.17.04-.36.08-.54.13a.01385.01385,0,0,0-.02,0c-.49.11-1.01.23-1.55.34-.63.13-1.3.26-2,.39-1.16.22-2.39.43-3.69.64q-.78.12-1.59.24c-.04.01-.08.01-.12.02a.48686.48686,0,0,1-.12.01.03491.03491,0,0,1-.02.01c-.45.07-.92.13-1.39.2-.56.08-1.13.15-1.7.23l-.21.03h-.07v.01c-.84.1-1.69.21-2.56.31-.5.06-1,.12-1.51.18-.48.05-.97.1-1.46.15l-1.14.12c-.74.07-1.49.15-2.24.22-.65.06-1.29.11-1.95.17-.32.03-.65.06-.98.08-.98.08-1.97.16-2.97.23-.67.05-1.34.1-2.01.14-.91.06-1.82.12-2.74.17-.41.02-.83.04-1.24.07-.36.01-.72.03-1.09.05-.6.03-1.2.05-1.81.08-.49.02-.97.04-1.47.06-.6.02-1.2.04-1.8.05-.42.02-.84.03-1.27.04l-1.56.03a142.28162,142.28162,0,0,1-23.97-1.23c-.64-.1-1.27-.2-1.91-.29-.8-.11-1.6-.21-2.4-.31a.195.195,0,0,1-.08-.01c-.64-.07-1.28-.15-1.92-.23h-.01c-.55-.07-1.1-.13-1.65-.2-.53-.06-1.06-.13-1.6-.2-.48-.07-.95-.13-1.42-.2l-.18-.03c-.53-.08-1.06-.16-1.59-.26-.53-.08-1.06-.18-1.59-.29-.51-.11-1.01-.22-1.52-.34-.03-.01-.07-.01-.1-.02-.44-.11-.88-.22-1.32-.35a1.33216,1.33216,0,0,1-.19-.05,33.76245,33.76245,0,0,1-9.12-4.16c-.46-.3-.92-.61-1.36-.93-.45-.32-.89-.65-1.32-1,.01.01.03.01.04.02a34.58871,34.58871,0,0,0,8.28,2.67h.02c2.45.56,5.29,1.08,8.43,1.55,1.04.16,2.1.31,3.2.46h.01c1.64.22,3.34.42,5.1.61.13.01.25.02.37.03v.01c1.39.14,2.82.28,4.27.4,16.32,1.4,36.27,1.41,52.83-1.65l.78-.15c1.49-.28,2.94-.59,4.36-.93.52-.12,1.03-.24,1.54-.38.29-.07.59-.15.88-.23a59.9809,59.9809,0,0,0,12.46-4.64,31.94837,31.94837,0,0,0,6.41-4.28h.01a35.25227,35.25227,0,0,0,4.4-4.63c11.69-14.83,7.18-34.99,3.19-46.2v-.01c-.19-.52-.38-1.02-.56-1.5a69.68591,69.68591,0,0,0-2.97-6.86c.33.41.65.82.97,1.26.17.23.33.45.5.69l.03.03c.05.07.11.15.16.22.2.28.38.57.58.86.19.27.38.56.56.85.11.16.22.33.32.5.09.14.18.28.28.43.1.17.2.34.3.52.24.4.48.79.71,1.2v.01c.17.3.33.59.49.88.92,1.66,1.75,3.28,2.51,4.86.59,1.24,1.13,2.46,1.62,3.65.25.6.48,1.19.71,1.78.23.58.44,1.17.64,1.74.2.58.39,1.16.56,1.72.23.7.43,1.4.62,2.09s.37,1.37.52,2.05c.31,1.34.55,2.66.74,3.94.04.28.08.55.11.84v.01c.04.27.07.56.09.84.01.07.02.15.03.23a1.94189,1.94189,0,0,1,.02.24c.01.12.02.23.03.34.01.12.02.24.03.35Q443.48,237.78,443.51,238.56Z" transform="translate(-165.18903 -94.19877)"/><path class="cls-27" d="M349.68,262.58c-8.27,1.65-13.69-1.6-22.07-2.45-2.65-.27-5.33-.38-7.96-.75a26.33656,26.33656,0,0,1-5.11-1.19,9.65037,9.65037,0,0,0-2.5-.72,2.53988,2.53988,0,0,0-2.31.9,4.14168,4.14168,0,0,1-.49.72,1.23731,1.23731,0,0,1-1.09.25,1.76623,1.76623,0,0,1-.56-.19c-.51-.28-.94-.7-1.44-.99a3.22846,3.22846,0,0,0-4.02.81c-.6.78-.88,1.9-1.77,2.34-1.3.65-2.7-.64-3.57-1.81-.87-1.16-2.18-2.5-3.54-1.97-.65.26-1.06.9-1.58,1.38-1.73,1.64-4.46,1.41-6.82,1.07a8.4524,8.4524,0,0,1-2.73-.7,2.90835,2.90835,0,0,1-1.66-2.15c-.17-1.73,1.67-2.93,3.32-3.49a4.61216,4.61216,0,0,1,2.07-.34,1.77437,1.77437,0,0,1,1.52,1.27c.25,1.21-1.18,2.07-2.4,2.27m64.71,10.15c-6.9-.34-20.78.85-27.22,3.35-.26.1-.5.2-.76.3h-.01a5.732,5.732,0,0,1-2.63.44c-1.36-.17-2.43-1.15-3.55-2.01-.2-.15-.4-.3-.61-.44a2.12215,2.12215,0,0,0-.79-.37c-.79-.15-1.49.49-2.13.99a7.49891,7.49891,0,0,1-6.98,1.12c-1.34-.47-2.61-1.35-4.03-1.28-1.55.07-2.9,1.27-4.46,1.25a7.76328,7.76328,0,0,1-3.15-1.18,12.18719,12.18719,0,0,0-8.64-.77,2.50358,2.50358,0,0,0-1.44.83,1.96172,1.96172,0,0,0,.71,2.64,5.18336,5.18336,0,0,0,2.96.61m9.15,9.32a2.65363,2.65363,0,0,0-2.01-.11,1.39005,1.39005,0,0,0-.82,1.68c.28.69,1.14.89,1.88.99,2.66.37,5.54.71,7.9-.56a2.873,2.873,0,0,0,1.21-1.05c.32-.54.37-1.21.7-1.74.88-1.39,2.95-1.01,4.56-1.32a24.49517,24.49517,0,0,1,2.62-.66c1.29-.1,2.56.53,3.85.41,1.63-.17,2.95-1.5,4.57-1.72,1.21-.17,2.41.31,3.63.38a10.24936,10.24936,0,0,0,5.04-1.4c.47-.24.94-.47,1.41-.7a16.39821,16.39821,0,0,1,2.02-.79h.01c.43-.14.87-.28,1.34-.41a88.38812,88.38812,0,0,1,9.06-1.82c.69-.11,1.37-.21,2.03-.32.42-.06.82-.12,1.22-.19h.01c1.83-.27,3.48-.54,4.78-.8" transform="translate(-165.18903 -94.19877)"/><path class="cls-18" d="M403.68,278.02a42.35568,42.35568,0,0,0-3.11-3.52c-.29-.3-.59-.59-.89-.88a42.33675,42.33675,0,0,0-3.79-3.27,39.54621,39.54621,0,0,0-16.03-7.75c-.15.64-.37,1.14-.68,1.24-.66.2-1.64-.79-2.41-1.73a27.589,27.589,0,0,0-11,.99c-.48.75-1.02,1.36-1.52,1.31-.23-.02-.44-.25-.64-.57a30.98943,30.98943,0,0,0-2.95,1.35,38.07241,38.07241,0,0,0-6.18,3.96c-.4.31-.79.63-1.18.96a86.8253,86.8253,0,0,0-8.89691,8.9571c-2.7457,3.112-5.555,6.2143-8.01909,9.5538-.02471.0336-.08271.0878-.09231.1291.4199-1.8,2.67831-8.2717,2.95831-9.7917-.03,0,.98-.3683.96-.3783-.64-.0701.64.08,0,0,.68-.92,1.38-1.82,2.11-2.72.15-.18.3-.37.45-.55.51-.61,1.02-1.21,1.56-1.81.26-.29.51-.57.77-.85.74-.79,1.49-1.57,2.27-2.32a53.7876,53.7876,0,0,1,4.22-3.75c.18-.15.36-.3.54-.44a40.66179,40.66179,0,0,1,9.71-5.71c-1.29-1.13-1.215-2.0237-1.215-2.0237L381.72,257.39a3.17357,3.17357,0,0,1-.37,1.65,41.49889,41.49889,0,0,1,11.73,4.8,49.54291,49.54291,0,0,1,10.77,8.58c.12.11.23.23.34.35.25.26.5.53.74.8.92,1.03,1.79,2.08,2.59,3.15a9.93633,9.93633,0,0,1,5.23-.34c-.49.11-1.01.23-1.55.34-.63.13-1.3.26-2,.39-.89.18-1.82.34-2.8.5-.29.05-.59.09-.89.14q-.78.12-1.59.24c-.04.01-.08.01-.12.02C403.77,278.01,403.73,278.02,403.68,278.02Z" transform="translate(-165.18903 -94.19877)"/><path class="cls-32" d="M488.58279,461.3964H255.7357a13.68011,13.68011,0,0,1-13.6801-13.6801H502.26289A13.68011,13.68011,0,0,1,488.58279,461.3964Z" transform="translate(-165.18903 -94.19877)"/><path class="cls-32" d="M494.7,312.9817V433.3584A19.56163,19.56163,0,0,1,475.13839,452.92H269.1717A19.55171,19.55171,0,0,1,249.62,433.3683V312.9817A19.55171,19.55171,0,0,1,269.1717,293.43H475.14829A19.55172,19.55172,0,0,1,494.7,312.9817Z" transform="translate(-165.18903 -94.19877)"/><path class="cls-6" d="M105.95137,204.43173H307.98906a13.5327,13.5327,0,0,1,13.5327,13.5327v122.0204a13.5327,13.5327,0,0,1-13.5327,13.5327H105.95127a13.5327,13.5327,0,0,1-13.5327-13.5327V217.96453A13.5328,13.5328,0,0,1,105.95137,204.43173Z"/><path class="cls-33" d="M486.71,308.0854V434.1875a13.56,13.56,0,0,1-5.43,10.8499,13.51177,13.51177,0,0,0,2.67-8.0899V310.8454a9.45785,9.45785,0,0,0-9.45791-9.4579H268.38a13.52027,13.52027,0,0,0-8.09,2.68,13.541,13.541,0,0,1,10.85-5.44H477.25209A9.45785,9.45785,0,0,1,486.71,308.0854Z" transform="translate(-165.18903 -94.19877)"/><g class="cls-34"><path class="cls-35" d="M497.25,447.7209q-31.095.87-62.19,1.1699c-10.36.1401-20.73.1601-31.09.25l-31.09.07-31.1-.08c-10.36-.0799-20.73-.11-31.09-.25q-31.095-.3-62.19-1.1599Z" transform="translate(-165.18903 -94.19877)"/></g><g class="cls-36"><path class="cls-37" d="M450.27289,313.4177H290.7888a7.97478,7.97478,0,0,0-7.9727,7.983V428.2133a7.9659,7.9659,0,0,0,7.9727,7.9726H450.27289a7.97253,7.97253,0,0,0,7.9726-7.9726V321.4007A7.98142,7.98142,0,0,0,450.27289,313.4177Z" transform="translate(-165.18903 -94.19877)"/><circle cx="128.50217" cy="228.95283" r="2.0609"/><circle cx="138.23447" cy="228.95283" r="2.0609"/><circle cx="147.96667" cy="228.95283" r="2.0609"/></g><path class="cls-25" d="M461.50239,318.1439V424.9565a7.97261,7.97261,0,0,1-7.9727,7.9726H294.0456a7.9659,7.9659,0,0,1-7.9727-7.9726V318.1439a7.97478,7.97478,0,0,1,7.9727-7.983H453.52969A7.9815,7.9815,0,0,1,461.50239,318.1439Z" transform="translate(-165.18903 -94.19877)"/><path class="cls-37" d="M461.50239,318.1439v11.4848H286.0729V318.1439a7.97478,7.97478,0,0,1,7.9727-7.983H453.52969A7.9815,7.9815,0,0,1,461.50239,318.1439Z" transform="translate(-165.18903 -94.19877)"/><circle class="cls-25" cx="131.75897" cy="225.69603" r="2.0609"/><circle class="cls-25" cx="141.49127" cy="225.69603" r="2.0609"/><circle class="cls-25" cx="151.22347" cy="225.69603" r="2.0609"/><text class="cls-38" transform="translate(162.8847 289.74672)">404</text><text class="cls-39" transform="translate(151.31327 321.03969)">ERROR</text><path class="cls-18" d="M331.15,293.43h4.31c-1.02,1.9-1.95,3.77-2.82,5.58-.3.63-.6,1.26-.89,1.88-1.13,2.42-2.24,4.82-3.32,7.22-2.78,6.16-5.36,12.32-7.48,18.59-.62,1.85-1.22,3.71-1.76,5.59a5.73542,5.73542,0,0,0-.08.78,1.27506,1.27506,0,0,0-.01.19v.45c0,.06.01.12.01.18.01.12.03.23.04.33.01.04.02.09.03.13a1.76341,1.76341,0,0,0,.07.27.23535.23535,0,0,0,.02.08,1.42922,1.42922,0,0,0,.29.5h-.01a.55469.55469,0,0,0-.08-.06,12.442,12.442,0,0,1-1.07-.82c-.02-.02-.04-.02-.07-.03l.74,2.01a1.84715,1.84715,0,0,1-1.04-1.71,5.17182,5.17182,0,0,0-.15.64,2.77291,2.77291,0,0,0-.47-1.08l.21,2.46c-.75-.57-.66-1.79-.5-2.6a.36364.36364,0,0,0-.2.12s-.6.44-.82.42l-.7,1.75a4.26375,4.26375,0,0,1,.59-2.07c-.06-.36-.24-.9-.52-1.02-.46.75-1.24,1.71-2.23,1.75l1.61-1.58c-.81.36-1.12.13-1.12.13.86-.33,1.67-1.91,1.67-1.91h.01c3.14-11.08,7.88-21.62,12.88-32.32C329.17,297.4,330.11,295.44,331.15,293.43Z" transform="translate(-165.18903 -94.19877)"/><path class="cls-18" d="M424.34,298.21l-.26.17a1.204,1.204,0,0,1-1.66-.39l-1.92-3.07-4.67,2.92,1.91,3.07a1.19071,1.19071,0,0,1-.38,1.66l-.26.17a1.202,1.202,0,0,1-1.66-.39l-1.92-3.07-2.94021,1.8337a2.11244,2.11244,0,0,1-2.9087-.6719L403.44,293.68l-.16-.25h19.61l-.08.05,1.92,3.07A1.202,1.202,0,0,1,424.34,298.21Z" transform="translate(-165.18903 -94.19877)"/><path class="cls-9" d="M316.662,330.258a6.091,6.091,0,0,0-1.2649,3.1503" transform="translate(-165.18903 -94.19877)"/><path class="cls-10" d="M317.3302,330.3296s-.883,2.482.2864,3.3889" transform="translate(-165.18903 -94.19877)"/><path class="cls-11" d="M318.0462,330.616s-.358,2.2911,1.0262,2.7923" transform="translate(-165.18903 -94.19877)"/><path class="cls-12" d="M315.9353,329.4137s-1.0501,2.5775-2.6968,2.6491" transform="translate(-165.18903 -94.19877)"/><path class="cls-13" d="M407.555,273.8665c-9.57391-12.7383-27.83631-23.3346-45.313-16.4982a40.38708,40.38708,0,0,0-10.11051,5.8735c-11.6602,9.1197-18.865,22.5001-23.83949,33.139-5.00361,10.7011-9.739,21.2386-12.8829,32.32l-.012.0059s-.8114,1.5752-1.6706,1.9093c0,0,.3819.2864,1.432-.2864.5727-.3341.8591.9069.8591,1.241s.9034-.3341.9034-.3341.4808-.6682.9581,1.0978c.1432-.8114.2864-1.1455.5251-.9069s1.1933.9069,1.1933.9069-.7641-.5025-.4112-2.9443c3.0684-10.6842,7.68449-20.9539,12.5647-31.3923,4.79439-10.2526,11.71059-23.1273,22.73279-31.748a36.58543,36.58543,0,0,1,9.1495-5.3251c15.6204-6.1129,32.135,3.6142,40.8691,15.236,1.0292,1.37,2.0345,2.8385,2.9877,4.3659l3.2397-2.0211C409.71849,276.8848,408.64979,275.3238,407.555,273.8665Z" transform="translate(-165.18903 -94.19877)"/><path class="cls-14" d="M410.72939,278.5082l-3.2391,2.0224c-.9567-1.5273-1.95529-2.9958-2.9874-4.372-8.7356-11.6223-25.2501-21.3481-40.8667-15.2307a36.465,36.465,0,0,0-9.15519,5.3203c-11.01811,8.6181-17.93271,21.499-22.73261,31.7535-4.8755,10.4307-9.49079,20.7019-12.56209,31.3843-.3022,2.0895.2098,2.7608.3692,2.9202-.1259-.0923-.5035-.3608-.7972-.5874-.0168-.2769-.0336-.5622-.0252-.8391a17.79,17.79,0,0,1,.8392-4.5818c.3944-1.3259.814-2.6349,1.2503-3.944.8811-2.6266,1.8461-5.2279,2.86149-7.8041q1.5483-3.9021,3.2391-7.737c1.1329-2.593,2.3077-5.1692,3.4909-7.7286q.6672-1.4349,1.3343-2.8699c4.7999-10.2545,11.7145-23.127,22.73261-31.7451a36.50432,36.50432,0,0,1,9.15519-5.3287c15.6166-6.109,32.1311,3.6168,40.8667,15.2391,1.03211,1.3678,2.0307,2.8363,2.9874,4.3636l2.4251-1.5105C410.19229,277.6523,410.46079,278.0802,410.72939,278.5082Z" transform="translate(-165.18903 -94.19877)"/><path class="cls-25" d="M380.18549,256.5373s-.0408,4.1132-1.0067,4.4076c-1.2042.367-3.5305-3.2824-3.5305-3.2824Z" transform="translate(-165.18903 -94.19877)"/><path class="cls-25" d="M362.39569,257.3902s.8474,4.0251,1.85231,4.1242c1.25269.1235,2.81749-3.9115,2.81749-3.9115Z" transform="translate(-165.18903 -94.19877)"/><path class="cls-40" d="M359.92589,255.0306s3.49111,7.6691,10.9059,1.7175c3.9533,4.5137,11.1636,1.5478,10.8865-2.2535" transform="translate(-165.18903 -94.19877)"/><path class="cls-25" d="M414.33174,292.34184h1.54358a.58886.58886,0,0,1,.58886.58886v6.23074a1.20821,1.20821,0,0,1-1.20821,1.20821h-.30479a1.20828,1.20828,0,0,1-1.20828-1.20828v-6.23069A.58884.58884,0,0,1,414.33174,292.34184Z" transform="translate(-259.1499 170.67526) rotate(-31.98546)"/><path class="cls-18" d="M407.18,293.43h-3.94l-2.19-3.51a10.13813,10.13813,0,0,1,2.67-13.59q.27,1.785.63,3.81c.56,3.21,1.28,6.83,2.19,10.71.04.12.07.26.1.39Q406.895,292.32,407.18,293.43Z" transform="translate(-165.18903 -94.19877)"/><path class="cls-25" d="M421.93293,287.98106h.305a1.20821,1.20821,0,0,1,1.20821,1.20821v5.61135a1.20822,1.20822,0,0,1-1.20822,1.20822H421.933a1.20821,1.20821,0,0,1-1.20821-1.20821v-5.61142a1.20815,1.20815,0,0,1,1.20815-1.20815Z" transform="translate(-255.78 173.71156) rotate(-31.98546)"/><path class="cls-41" d="M424.49119,289.5298l-14.2164,8.8794a1.75591,1.75591,0,0,1-2.4195-.5592l-5.6651-9.07a10.13683,10.13683,0,0,1,3.2277-13.9675h0a10.13677,10.13677,0,0,1,13.9674,3.2276l5.6651,9.0701A1.756,1.756,0,0,1,424.49119,289.5298Z" transform="translate(-165.18903 -94.19877)"/><path class="cls-42" d="M406.77719,274.1174a10.10126,10.10126,0,0,0-1.9821,13.0387l6.591,10.5525-1.1747.7337a1.68478,1.68478,0,0,1-2.3213-.5364L402.219,288.826a10.20969,10.20969,0,0,1,3.23129-14.0337A7.66256,7.66256,0,0,1,406.77719,274.1174Z" transform="translate(-165.18903 -94.19877)"/></g></g></svg>