<svg id="Capa_1" data-name="Capa 1" xmlns="http://www.w3.org/2000/svg" viewBox="0 0 280.64358 283.06461"><defs><style>.cls-1{fill:#141623;opacity:0.9;}.cls-2{fill:#0d1721;}.cls-3{fill:#371a45;}.cls-4{fill:#1698f9;}.cls-5{fill:#fff;}.cls-6{fill:#226cba;}.cls-7{fill:#9b8da2;}.cls-8{fill:#b9afbe;}.cls-9{fill:#8bccfc;}.cls-10{fill:#5bb6fa;}.cls-11{fill:#b0afb2;}.cls-12{fill:#857b8c;}.cls-13{fill:#6a92c0;}.cls-14{fill:#e7e7e8;}.cls-15{fill:#fdfefe;}.cls-16{fill:#8acbfb;}.cls-17{fill:#247ed3;}.cls-18{fill:#ff0068;}.cls-19{fill:#c3085d;}.cls-20{fill:#ff80b4;}.cls-21{fill:#5cb7fb;}.cls-22{fill:#1798f9;}.cls-23{fill:#db2c2c;}.cls-24{fill:#da2c2c;}.cls-25{fill:#22a7f0;}</style></defs><title>not-results-black</title><ellipse class="cls-1" cx="131.95371" cy="274.56461" rx="109" ry="8.5"/><path class="cls-2" d="M199.439,148.68a1.18292,1.18292,0,0,0,.64895.50687A26.63337,26.63337,0,0,1,214.0311,168.678a23.62206,23.62206,0,0,1,.29248,4.97376,2.706,2.706,0,0,0,.4652,1.65222q5.89887,9.06465,11.07859,18.56a2.043,2.043,0,0,0,1.16587,1.07047,6.14048,6.14048,0,0,1,4.175,6.27009,2.87593,2.87593,0,0,1-.06132.72348,4.56783,4.56783,0,0,0,.51606,3.47671,38.489,38.489,0,0,1,3.3115,10.78716,37.06816,37.06816,0,0,1,.02978,10.36054c-.16773,1.33544-.40282,2.66238-.6162,4.05181a1.94189,1.94189,0,0,0,.93214-.40074,17.54483,17.54483,0,0,1,10.21868-2.15953,14.82013,14.82013,0,0,1,9.04813,3.99034,13.58281,13.58281,0,0,1,2.48081,3.81941,29.70744,29.70744,0,0,1,3.02461,10.84282c.68268,7.02726-.32876,13.89377-2.0004,20.6901a119.27741,119.27741,0,0,1-6.98217,19.98311,11.44133,11.44133,0,0,1-8.84886,6.94088c-.62448.11566-1.17792.38855-1.77869.54791a26.108,26.108,0,0,1-6.49525.69484,78.33365,78.33365,0,0,1-10.78063-.68961,1.42933,1.42933,0,0,0-1.50838.553,9.04591,9.04591,0,0,1-7.33642,3.49627q-63.38493.00849-126.76989.00117a8.85775,8.85775,0,0,1-7.13062-3.2544,2.10129,2.10129,0,0,0-2.20577-.82377,76.057,76.057,0,0,1-10.67372.72076,26.199,26.199,0,0,1-5.9928-.53716c-1.4446-.33874-2.89489-.68344-4.30055-1.15182a11.33082,11.33082,0,0,1-7.00905-6.3816,126.847,126.847,0,0,1-5.86215-15.76527,81.61433,81.61433,0,0,1-3.0833-14.93494,41.36541,41.36541,0,0,1,1.33606-17.0753c.607-1.88739,1.504-3.6479,2.2817-5.46a6.65066,6.65066,0,0,1,2.088-2.55333c5.4638-4.30473,11.40742-4.82244,17.68264-2.10288a22.8198,22.8198,0,0,1,9.20542,7.74031c.86506,1.17036,1.60124,2.42364,2.34495,3.66369.36976-.15133.22761-.40635.19412-.63393q-1.01346-6.88613-2.02748-13.77218-1.09331-7.40017-2.19272-14.79943-.661-4.47109-1.31012-8.9439a1.08218,1.08218,0,0,0-.90042-1.05541A61.9731,61.9731,0,0,1,43.04,186.24192a77.86215,77.86215,0,0,1-9.43244-10.78865,152.29244,152.29244,0,0,1-9.31915-14.1418A29.35586,29.35586,0,0,1,21.4177,154.539c-1.49173-5.50208,1.68023-12.63026,6.47057-15.24034a1.68649,1.68649,0,0,0,.92184-1.24776,6.88977,6.88977,0,0,1,4.63849-5.29016,15.17032,15.17032,0,0,1,9.40192-.09561,32.4511,32.4511,0,0,1,9.81352,4.886,2.55826,2.55826,0,0,0,.956.55876c.16883-.61554.33393-1.23134.50683-1.845a11.59639,11.59639,0,0,1,1.58271-3.4855,5.67217,5.67217,0,0,1,8.766-.9028A9.95568,9.95568,0,0,1,66.59,134.93839a29.19782,29.19782,0,0,1,2.11118,6.94026,38.86359,38.86359,0,0,1,.6669,4.41577,1.82533,1.82533,0,0,0,.53871,1.19537,23.13753,23.13753,0,0,0,12.35979,7.01895,22.80486,22.80486,0,0,0,7.04116.03512,54.01333,54.01333,0,0,0,5.51907-.99408,1.91478,1.91478,0,0,0,.94771-.391,28.25952,28.25952,0,0,1,4.72807-3.49732c.03867-.35388-.21539-.46309-.37884-.61193A72.59848,72.59848,0,0,1,83.582,127.09551a1.20047,1.20047,0,0,0-1.363-.76337,16.6681,16.6681,0,0,1-11.51883-3.67951,17.098,17.098,0,0,1-6.54928-12.0847c-.45834-4.34006-.87033-8.68638-1.41784-13.01539A17.383,17.383,0,0,1,72.35946,79.2343a16.07665,16.07665,0,0,1,4.74231-1.47747c.65677-.08992.89317-.37695,1.05209-1.007a73.70845,73.70845,0,0,1,57.527-54.47643,70.65339,70.65339,0,0,1,18.9358-1.14476,72.63241,72.63241,0,0,1,44.91406,19.392,71.731,71.731,0,0,1,16.02849,21.44305,1.2005,1.2005,0,0,0,1.35974.76405A17.313,17.313,0,0,1,234.59741,76.1698a46.67906,46.67906,0,0,1,.69448,5.35449c.41719,3.68238.89756,7.36134,1.17508,11.055.52972,7.05048-2.24626,12.53882-8.14478,16.42482a15.00586,15.00586,0,0,1-6.084,2.28528,1.29862,1.29862,0,0,0-1.28934,1.15259,69.70952,69.70952,0,0,1-4.83993,13.58072,73.5513,73.5513,0,0,1-15.82471,21.852C200.00964,148.137,199.73443,148.3986,199.439,148.68Z" transform="translate(-21.04629 -20.93539)"/><path class="cls-3" d="M275.19907,107.397a24.86833,24.86833,0,0,1-7.08708-.91477,2.34633,2.34633,0,0,0-1.7826.16824c-2.80648,1.35528-5.67394,2.591-8.4339,4.03346-1.94254,1.01521-3.46841-.06881-3.2529-2.119.3149-2.99516.4157-6.01241.63685-9.01813a1.91709,1.91709,0,0,0-.49367-1.49979,25.94164,25.94164,0,0,1-6.3037-19.34426,26.63959,26.63959,0,1,1,32.38327,28.05308c-.77632.173-1.56342.30734-2.35158.41519A19.71064,19.71064,0,0,1,275.19907,107.397Z" transform="translate(-21.04629 -20.93539)"/><path class="cls-4" d="M213.47822,201.89573a25.32666,25.32666,0,0,0-5.31492,1.70058,11.91424,11.91424,0,0,0-4.756,4.0686,31.82531,31.82531,0,0,0-4.68485,9.77937,45.28016,45.28016,0,0,0-2.04841,13.80166,30.535,30.535,0,0,0,.95476,7.49427,18.24267,18.24267,0,0,0,3.57134,7.18664c.30335.57761-.07269.99612-.36331,1.40679a53.66708,53.66708,0,0,1-15.57126,14.62c-8.68537,5.42295-18.14208,9.01941-27.93956,11.82373a186.5528,186.5528,0,0,1-19.74428,4.4366q-8.18249,1.40736-16.44513,2.2764c-4.16162.44347-8.32836.83664-12.499,1.1395-3.032.22017-6.07526.36789-9.11439.52292-2.72858.13917-5.46335.06676-8.18979.32-1.02.09479-2.15278.40991-3.07858-.43077a14.57237,14.57237,0,0,1-.809-4.05151c-.8429-5.46581-1.64182-10.93864-2.43807-16.41146-.65193-4.48086-1.32887-8.95811-1.98365-13.43854q-.95231-6.51589-1.93269-13.02824c-.68088-4.51143-1.35718-9.02372-2.00139-13.54066-.56135-3.93588-1.1906-7.8617-1.74987-11.798-.16043-1.12912-.35072-2.25631-.48126-3.38772-.29521-2.55846,2.01042-5.00688,4.83417-5.1905.58789-.03824,1.178-.02214,1.7672-.02214q62.85294-.00039,125.70589.00266a8.23278,8.23278,0,0,1,2.06949.11C211.97,201.53525,212.89736,201.07967,213.47822,201.89573Z" transform="translate(-21.04629 -20.93539)"/><path class="cls-5" d="M196.43568,156.67178c1.52128,1.61585,2.872,3.37376,4.22239,5.12891a266.33289,266.33289,0,0,1,20.89313,32.11474c.08221.14622.14526.30324.2164.4535-.20127.27483-.46241.15927-.6778.15955q-8.475.01108-16.94994.00521c-.87286-.00025-.87583-.00493-1.10853-.83274-.98359-3.49923-2.06139-6.96919-3.25889-10.40109a20.68,20.68,0,0,0-2.97517-5.79851,6.933,6.933,0,0,0-.45482-.56732c-.20178-.21422-.34864-.59087-.73156-.44266-.31741.12284-.23194.47153-.25644.73419a20.40972,20.40972,0,0,0,.756,7.19352q1.22973,4.61434,2.45881,9.22888a1.47276,1.47276,0,0,1,.106.8435H100.17083c.31052-1.12358.61539-2.184.89637-3.25081a93.09657,93.09657,0,0,0,2.72246-14.68677c.03856-.39546.36338-1.018-.21886-1.17247-.45385-.12037-.56869.51447-.76078.85392a58.89621,58.89621,0,0,0-4.14239,9.05518c-.11628.32259-.26061.63507-.3919.95225a2.614,2.614,0,0,1-1.593,1.06562,62.21942,62.21942,0,0,1-9.62735,1.871c-1.513.18055-3.03447.044-4.53593.30143a1.06393,1.06393,0,0,1-1.125-.34836,2.71024,2.71024,0,0,1,.04691-.71939,62.72092,62.72092,0,0,0,2.69-13.81755,125.314,125.314,0,0,0,.61542-15.04544c-.00994-.94569-.202-.982.906-.9853A51.49163,51.49163,0,0,0,98.34153,156.592c1.64023-.42218,3.26192-.91637,4.892-1.37777a1.57558,1.57558,0,0,1,1.72756.63774c1.51271,1.56841,2.99723,3.1569,4.61049,4.6336,9.06378,8.2965,19.499,13.93756,31.67888,15.88357,16.45711,2.62945,31.38735-1.33367,44.83786-11.08815a67.7633,67.7633,0,0,0,8.88-7.81472C195.36,157.06147,195.71725,156.50958,196.43568,156.67178Z" transform="translate(-21.04629 -20.93539)"/><path class="cls-5" d="M25.03479,152.94a5.87587,5.87587,0,0,1-.03994-3.0784,11.85189,11.85189,0,0,1,3.1897-6.07033,6.6642,6.6642,0,0,1,2.70283-1.69106,1.85394,1.85394,0,0,0,1.476-1.985,5.56138,5.56138,0,0,1,.16178-1.23274,3.214,3.214,0,0,1,2.19606-2.54207,11.2557,11.2557,0,0,1,6.64953-.14724,24.22033,24.22033,0,0,1,6.45977,2.77993,45.19552,45.19552,0,0,1,4.77752,3.31255.71819.71819,0,0,1,.23467,1.10468,16.61788,16.61788,0,0,0-1.92637,4.79822,12.23087,12.23087,0,0,0,.88326,7.80674c.086.18829.189.369.28829.551a.24137.24137,0,0,0,.25913.11526.19779.19779,0,0,0,.1795-.21135c.01246-.24148.00368-.48425-.00128-.7264a15.49353,15.49353,0,0,1,2.25417-8.72336,22.93162,22.93162,0,0,0,2.05647-4.2969,4.22759,4.22759,0,0,0,.21223-1.21992,17.50855,17.50855,0,0,1,1.0413-5.06669,6.20706,6.20706,0,0,1,.75082-1.47678,1.839,1.839,0,0,1,2.94356-.35307,5.50561,5.50561,0,0,1,1.303,1.86022,24.88394,24.88394,0,0,1,1.85248,6.03856,33.80829,33.80829,0,0,1,.68879,4.7246,3.806,3.806,0,0,0,1.11481,2.48893,26.68681,26.68681,0,0,0,14.55575,8.47261c.55582.10773.80219.2875.81415.92545q.09153,4.88727-.15758,9.76631a92.31272,92.31272,0,0,1-1.19425,11.15,46.84489,46.84489,0,0,1-2.24352,8.93626,2.13682,2.13682,0,0,1-1.77636.35516,62.07417,62.07417,0,0,1-19.64792-4.92052,58.50487,58.50487,0,0,1-13.08749-7.57329,57.81214,57.81214,0,0,1-14.82795-16.35975,61.9748,61.9748,0,0,1-3.5702-6.07762C25.40054,153.90055,25.236,153.41369,25.03479,152.94Z" transform="translate(-21.04629 -20.93539)"/><path class="cls-6" d="M88.51583,282.09061c2.87345.06028,5.737-.22641,8.61-.25667,1.19967-.01259,2.41972-.04956,3.62148-.16029,1.78956-.165,3.58626-.17233,5.377-.33772,1.37214-.1267,2.75957-.14079,4.13681-.26635,2.09635-.19112,4.19124-.403,6.29027-.55859,1.5509-.11492,3.091-.32975,4.638-.45688,2.032-.167,4.04806-.45475,6.06928-.69619,2.19183-.26183,4.36732-.658,6.5532-.97284,3.35074-.48265,6.67291-1.12036,9.99227-1.779,3.73-.74011,7.43285-1.59755,11.10073-2.596a134.06063,134.06063,0,0,0,18.34255-6.2851,84.41177,84.41177,0,0,0,13.77233-7.44069,59.03468,59.03468,0,0,0,5.855-4.62762,56.05081,56.05081,0,0,0,8.12678-9.25808,2.20349,2.20349,0,0,0,.19855-.47171,15.44788,15.44788,0,0,0,12.26131,4.93685c1.47335-.0556,2.93762-.35273,4.406-.53927a1.303,1.303,0,0,1,.27231,1.25587c-.84088,6.02271-1.77544,12.0314-2.66921,18.04618-.6042,4.06618-1.20882,8.133-1.77392,12.2052a2.21327,2.21327,0,0,1-.61732,1.4951c-.45.01-.9.02882-1.35007.02884q-60.9186.00207-121.83724.00153c-.797,0-1.59411.01213-2.39094.00178-.8386-.01092-.83849-.01976-.85956-.979A1.20955,1.20955,0,0,1,88.51583,282.09061Z" transform="translate(-21.04629 -20.93539)"/><path class="cls-5" d="M200.60294,232.3891a18.466,18.466,0,0,1,.02537-4.76554,40.35231,40.35231,0,0,1,3.705-14.07356,17.80829,17.80829,0,0,1,3.41192-5.05312,7.269,7.269,0,0,1,2.31166-1.54822,20.23344,20.23344,0,0,1,10.28749-1.29337,27.16333,27.16333,0,0,1,6.3452,1.50815,2.54219,2.54219,0,0,1,1.27986.98429,19.32,19.32,0,0,1,3.15375,8.16,38.78794,38.78794,0,0,1-1.2316,16.43888,3.65028,3.65028,0,0,1-.20262.47656,11.52254,11.52254,0,0,1-8.59643,6.47222c-2.5794.50754-5.13553,1.26446-7.793,1.00324-4.80827-.47262-8.95609-2.25378-11.88858-6.308A6.50621,6.50621,0,0,1,200.60294,232.3891Z" transform="translate(-21.04629 -20.93539)"/><path class="cls-7" d="M148.12589,55.56789a1.25732,1.25732,0,0,1-.76556.41308A82.73146,82.73146,0,0,0,122.0577,70.03764a54.25134,54.25134,0,0,0-14.78362,18.15607,134.88439,134.88439,0,0,0-5.38746,13.16805,139.04356,139.04356,0,0,0-5.59519,19.12369c-.0847.40594-.16137.81359-.24918,1.21884a1.34276,1.34276,0,0,1-.15721.26526,5.99048,5.99048,0,0,1-.284-.61936,89.52191,89.52191,0,0,1-3.63324-15.97414A64.08861,64.08861,0,0,1,91.417,94.38949a38.18476,38.18476,0,0,1,3.22791-14.60942,25.36234,25.36234,0,0,1,7.12931-9.2A66.42352,66.42352,0,0,1,120.38028,60.1836a85.329,85.329,0,0,1,17.45655-4.53333,49.2299,49.2299,0,0,1,7.44689-.62614c.69006.00136,1.38047.09785,2.06963.16246A1.02838,1.02838,0,0,1,148.12589,55.56789Z" transform="translate(-21.04629 -20.93539)"/><path class="cls-5" d="M93.37183,53.91562c24.77806-35.2344,77.5656-39.63,107.99235-5.71557-.28755.15344-.441-.10125-.62042-.215a77.18691,77.18691,0,0,0-24.30749-9.862,108.99258,108.99258,0,0,0-29.52269-2.43369,107.80415,107.80415,0,0,0-29.05314,5.1324A75.246,75.246,0,0,0,93.62872,53.74158C93.54875,53.80657,93.45771,53.85792,93.37183,53.91562Z" transform="translate(-21.04629 -20.93539)"/><path class="cls-8" d="M196.43568,156.67178c-1.46448,1.42435-2.89192,2.88927-4.39984,4.266a63.96377,63.96377,0,0,1-22.168,13.393,56.49222,56.49222,0,0,1-12.51364,2.88722,61.31753,61.31753,0,0,1-11.92609.09775,57.78766,57.78766,0,0,1-21.4934-6.26445A64.9948,64.9948,0,0,1,111.2,162.49068a73.73067,73.73067,0,0,1-6.7627-6.59852c-.32464-.359-.63159-.75577-1.20377-.67793.94609-.31654,1.89456-.62591,2.837-.95284.40493-.14048.65306.11817.93058.31438a73.63826,73.63826,0,0,0,85.61683-.34274c1.045-.74925,1.04775-.76145,1.93294.23455A22.38651,22.38651,0,0,1,196.43568,156.67178Z" transform="translate(-21.04629 -20.93539)"/><path class="cls-9" d="M88.51583,282.09061q-.93723.14382-1.8744.28847c-.42862-1.75-.58968-3.54461-.85746-5.32117q-1.32231-8.773-2.60779-17.55149-.99648-6.72321-1.99169-13.44655-1.07847-7.28832-2.15591-14.57681-1.09008-7.33942-2.18887-14.67753-1.12336-7.544-2.24585-15.08812c-.2643-1.75871.23531-2.70494,1.773-3.26265a4.095,4.095,0,0,1,1.23931-.06266q66.01938-.005,132.03876.00764c.57982.00015,1.35662-.30865,1.66237.46325a2.80648,2.80648,0,0,1,.05919,2.75341c-.51967.008-1.03932.023-1.559.023q-63.32762.00159-126.65523.00251a14.0813,14.0813,0,0,0-1.76512.04314,4.3556,4.3556,0,0,0-3.98309,5.26033c.85466,5.85317,1.69512,11.7084,2.56154,17.55985.79545,5.372,1.62826,10.7384,2.42429,16.1103.73015,4.92725,1.42219,9.86019,2.15129,14.78762.72407,4.89346,1.47966,9.78225,2.2097,14.67482C87.34814,274.08086,87.92815,278.08631,88.51583,282.09061Z" transform="translate(-21.04629 -20.93539)"/><path class="cls-6" d="M219.90779,289.62817a5.39189,5.39189,0,0,1-4.98581,5.39318c-.48409.02615-.97017.02135-1.45534.02135q-62.4965.00129-124.993-.001a8.52732,8.52732,0,0,1-2.77726-.26881c-2.08046-.69679-3.88651-3.05563-3.65971-5.143a.61947.61947,0,0,1,.7311.15425,11.40424,11.40424,0,0,0,6.719,1.6817q61.17752-.05031,122.35508-.00208c2.60927.002,5.12571-.08885,7.3318-1.68975A.64115.64115,0,0,1,219.90779,289.62817Z" transform="translate(-21.04629 -20.93539)"/><path class="cls-5" d="M83.38455,73.55348A16.53521,16.53521,0,0,1,85.266,68.64815a56.31736,56.31736,0,0,1,17.94339-16.88729,80.14255,80.14255,0,0,1,22.90784-9.25631,108.46745,108.46745,0,0,1,18.1511-2.76822,114.63841,114.63841,0,0,1,17.755.06783,84.29544,84.29544,0,0,1,30.35944,7.92171,56.96745,56.96745,0,0,1,17.62637,13.15485,18.14576,18.14576,0,0,1,2.79543,4.71531c-.20277.04126-.262-.08639-.32718-.16951a50.60321,50.60321,0,0,0-20.44623-15.22273,79.47955,79.47955,0,0,0-18.431-5.21836,123.87739,123.87739,0,0,0-26.83237-1.27177A121.955,121.955,0,0,0,120.84649,47.709a76.77228,76.77228,0,0,0-20.02936,8.41649A49.16343,49.16343,0,0,0,83.72188,73.07659C83.6232,73.24368,83.49759,73.39486,83.38455,73.55348Z" transform="translate(-21.04629 -20.93539)"/><path class="cls-7" d="M206.77071,88.49224a18.89348,18.89348,0,0,1-1.73134,8.04824,11.17987,11.17987,0,0,1-3.64614,4.45366,7.18148,7.18148,0,0,1-10.32995-1.37621,12.30214,12.30214,0,0,1-2.50288-5.85385,16.69864,16.69864,0,0,1,1.74977-10.76363,11.53385,11.53385,0,0,1,3.97424-4.43733,7.02659,7.02659,0,0,1,9.26207,1.08742,12.22984,12.22984,0,0,1,3.222,8.01094C206.78528,87.93742,206.77071,88.21528,206.77071,88.49224Z" transform="translate(-21.04629 -20.93539)"/><path class="cls-8" d="M107.792,150.13733c.43723-.15636.65747.0745.89156.18252a96.49158,96.49158,0,0,0,24.23512,7.528,83.57706,83.57706,0,0,0,18.32195,1.18762,99.601,99.601,0,0,0,44.30686-12.8044c.20772-.1164.41775-.22868.69082-.37793-1.63982,2.7403-13.0898,10.11294-20.06222,12.97917a70.25172,70.25172,0,0,1-47.112,2.19855A68.15452,68.15452,0,0,1,107.792,150.13733Z" transform="translate(-21.04629 -20.93539)"/><path class="cls-8" d="M25.03479,152.94c1.46839,2.38415,2.99071,4.73706,4.39388,7.159a56.44264,56.44264,0,0,0,10.68642,12.89671,58.80519,58.80519,0,0,0,14.84069,9.98344,62.59554,62.59554,0,0,0,17.88255,5.48626,35.35576,35.35576,0,0,0,5.67908.48442,24.179,24.179,0,0,1-2.22471,5.12579,1.39006,1.39006,0,0,1-.96274.69458,6.22567,6.22567,0,0,0-3.67579,2.70685c-.44473.67628-.452.67671-1.23115.45972a56.044,56.044,0,0,1-18.48288-9.19514,73.55718,73.55718,0,0,1-16.13661-16.77434A140.99437,140.99437,0,0,1,27.386,158.99282a22.90227,22.90227,0,0,1-2.17673-5.03921A2.41887,2.41887,0,0,1,25.03479,152.94Z" transform="translate(-21.04629 -20.93539)"/><path class="cls-10" d="M219.90779,289.62817l-.4259.207a15.763,15.763,0,0,1-3.51328-.01722q-63.34007.02747-126.68012.0239a39.78979,39.78979,0,0,0-5.91229.13794,2.90445,2.90445,0,0,1-.91827-.14543q-.21073-.10261-.4214-.2048a2.2591,2.2591,0,0,1,2.23174-2.4586c.31053-.02176.62358-.00925.93548-.00925q65.76217-.00042,131.52435.00028c.34648,0,.69552-.01691,1.039.01747A2.26384,2.26384,0,0,1,219.90779,289.62817Z" transform="translate(-21.04629 -20.93539)"/><path class="cls-5" d="M72.0619,270.65983a128.163,128.163,0,0,0-6.57252-27.0921,54.55916,54.55916,0,0,0-2.44826-5.83829,15.8811,15.8811,0,0,0-4.339-5.63284,1.49769,1.49769,0,0,1-.21014-.29892,14.42294,14.42294,0,0,1,6.29169,2.1078,22.246,22.246,0,0,1,7.1985,7.36968c.72286,1.14184,1.25757,2.39385,1.9435,3.55042,1.28449,2.16587,1.51972,4.64192,2.24221,6.97024.87173,2.80929,1.59872,5.66236,2.26063,8.53.03895.16872.06821.33972.11.50771a.32175.32175,0,0,0,.26921.27536.27762.27762,0,0,0,.27529-.25784c.03909-.21562.088-.42949.13268-.64409l.21962-.00231q.68289,4.80576,1.36577,9.61155c-.00551.611-.52405.70807-.92162.79353a39.48289,39.48289,0,0,1-7.04843.72264C72.36944,271.34738,72.15979,271.06532,72.0619,270.65983Z" transform="translate(-21.04629 -20.93539)"/><path class="cls-5" d="M221.15272,269.6035q.56424-3.95445,1.132-7.90839c.02882-.19893.0374-.49875.24535-.53338.43319-.07218.43184-.40333.49212-.68509.82562-3.85876,2.01949-7.62,3.021-11.43208a1.97623,1.97623,0,0,1,.43185-.92327,27.97166,27.97166,0,0,0,5.10379-8.49571,7.00112,7.00112,0,0,0,.41514-1.06143,5.35068,5.35068,0,0,1,1.98857-2.82341,16.0607,16.0607,0,0,1,8.731-3.94377c.12081.12731.04347.20023-.02862.2567a16.22917,16.22917,0,0,0-4.53532,5.98566,88.33952,88.33952,0,0,0-4.89719,13.54407,129.47246,129.47246,0,0,0-3.69611,16.91282c-.11784.78675-.20615,1.57795-.30812,2.36709-.16859.44124-.53079.46734-.93354.46965a43.99687,43.99687,0,0,1-5.97261-.526C221.7219,270.72562,220.987,270.55591,221.15272,269.6035Z" transform="translate(-21.04629 -20.93539)"/><path class="cls-5" d="M223.07283,90.739a74.09341,74.09341,0,0,0-5.31535-23.97611,12.24961,12.24961,0,0,1,6.9097,1.94662,13.12656,13.12656,0,0,1,6.29533,10.22663c.305,2.92689.637,5.85094.95189,8.77682.04815.44727.06853.89753.10177,1.34641a3.36594,3.36594,0,0,1-.69278,2.91471,15.66116,15.66116,0,0,1-6.69218,5.06934c-1.15373.45172-1.45859.20845-1.48244-1.0334C223.115,94.25312,223.25257,92.49369,223.07283,90.739Z" transform="translate(-21.04629 -20.93539)"/><path class="cls-5" d="M67.90659,107.58613c-.40595-3.68308-.79039-7.36868-1.22263-11.04867a13.35761,13.35761,0,0,1,9.17858-14.36893c.35095-.11066.71206-.18909,1.15729-.30581-.168,1.256-.3311,2.41423-.47668,3.5747a74.65765,74.65765,0,0,0,1.49076,26.41429,1.60772,1.60772,0,0,1,.01468.30906,1.20265,1.20265,0,0,1-1.23381.34756,15.5227,15.5227,0,0,1-8.00484-3.44734A2.73923,2.73923,0,0,1,67.90659,107.58613Z" transform="translate(-21.04629 -20.93539)"/><path class="cls-11" d="M250.246,278.56771c-3.51078-.32015-6.99138-.6374-10.472-.955-1.75749-.16036-3.5143-.32929-5.27282-.477a11.8374,11.8374,0,0,1-1.53606-.21239c-.94727-.20585-.9439-.17931-.905-1.15751a67.88335,67.88335,0,0,1,.77279-7.84273c.12225-.77828.12263-.77571.92426-.67829q8.24222,1.00174,16.48492,1.99923c1.09893.1333,2.19824.26386,3.296.4061.59389.077.65406.14539.48458.73285-.74826,2.59381-1.6218,5.14658-2.52411,7.69067C251.23784,278.80882,250.69567,278.54405,250.246,278.56771Z" transform="translate(-21.04629 -20.93539)"/><path class="cls-11" d="M69.28746,275.77348c0,.17324-.01075.34726.0022.51954.02865.38139-.12651.52752-.52038.59414-1.98329.33561-3.99024.42963-5.98682.62281-3.61972.35016-7.24436.64972-10.86408,1-1.85021.179-1.85091.20925-2.47161-1.54634-.73875-2.08955-1.44155-4.1912-2.05557-6.32112-.25519-.88522-.22429-.90317.69783-1.01631q7.32054-.89811,14.64009-1.80431c1.68394-.20731,3.37-.39853,5.0519-.62085.4391-.058.645.07322.70023.51408.25817,2.06086.62,4.10975.69594,6.1913.02271.62273.05754,1.24506.08682,1.86756Z" transform="translate(-21.04629 -20.93539)"/><path class="cls-8" d="M72.0619,270.65983c.14743.13716.254.34719.4989.32289a47.54937,47.54937,0,0,0,7.88624-.96616,1.63413,1.63413,0,0,0,.354-.20033c.33182,2.1174.67145,4.23363.99329,6.35255.33261,2.18969.62864,4.38512.98452,6.57089.0876.538-.0139.7913-.54129,1.00948a6.13493,6.13493,0,0,0-4.04649,6.64252c.02014.31992.1.58835-.3741.67983a70.4735,70.4735,0,0,1-8.37163.55695c-.082-.14679-.0033-.26048.07717-.373a16.44159,16.44159,0,0,0,2.71995-7.75808,49.2737,49.2737,0,0,0-.20629-12.63292A.80485.80485,0,0,1,72.0619,270.65983Z" transform="translate(-21.04629 -20.93539)"/><path class="cls-8" d="M200.60294,232.3891a2.14438,2.14438,0,0,1,.50294.77495,12.24548,12.24548,0,0,0,4.77643,4.78628,18.77635,18.77635,0,0,0,5.59627,2.13762,17.926,17.926,0,0,0,7.10209-.28022c.98005-.20627,1.9628-.39992,2.94516-.595a10.77216,10.77216,0,0,0,5.03631-2.54427,17.47936,17.47936,0,0,0,2.65121-2.91131c.14087-.19386.23867-.4258.47559-.53394a4.55966,4.55966,0,0,1-.37715,1.49635,35.55186,35.55186,0,0,1-4.12582,8.91073,11.11224,11.11224,0,0,1-2.1678,2.498,1.46424,1.46424,0,0,1-1.3289.41034,12.99364,12.99364,0,0,0-5.1466.11992,17.66521,17.66521,0,0,1-5.46422.322,10.72227,10.72227,0,0,1-8.21546-5.33488A18.29066,18.29066,0,0,1,200.60294,232.3891Z" transform="translate(-21.04629 -20.93539)"/><path class="cls-11" d="M256.505,259.35547c-.36352,2.28746-.8013,4.52814-1.34174,6.749-.09981.41021-.26734.55166-.71564.49311-2.19712-.28707-4.39966-.53242-6.5994-.79978q-5.61886-.68292-11.2367-1.37434c-.79046-.09672-1.58-.20214-2.37194-.28524-.4927-.0517-.72366-.19818-.60475-.78363.46165-2.27348.98614-4.53182,1.52552-6.78737.10791-.45137.32434-.59308.81331-.52069,1.91763.28382,3.84335.51244,5.765.76992q5.86694.78609,11.73262,1.58169c.85739.116,1.71222.25217,2.57083.35757C256.44609,258.80535,256.58348,259.00523,256.505,259.35547Z" transform="translate(-21.04629 -20.93539)"/><path class="cls-11" d="M44.852,259.43372c-.11519-.56489.16936-.6403.51152-.68674,1.30371-.17689,2.60532-.36938,3.90912-.54554q6.69055-.904,13.38222-1.79979c.92663-.12411,1.85965-.20759,2.78077-.36286.45969-.07746.63763.1104.73244.50065.55576,2.2874,1.09533,4.57809,1.54177,6.89033.0868.44955-.04847.63411-.48237.68563-1.37537.16328-2.74906.34066-4.12378.50956q-6.54681.80423-13.09393,1.6057c-1.06555.13041-2.13256.24924-3.19717.38673-.32526.042-.50878-.031-.59817-.38424C45.63633,263.94876,45.19759,261.63717,44.852,259.43372Z" transform="translate(-21.04629 -20.93539)"/><path class="cls-8" d="M221.15272,269.6035c.05.39221.2779.56479.66086.66882a15.49349,15.49349,0,0,0,2.23839.30146c1.59628.19343,3.2046.28849,4.809.41128a1.13165,1.13165,0,0,0,.38726-.12175,59.96981,59.96981,0,0,0-.34445,10.77263,17.19239,17.19239,0,0,0,3.051,9.85865c-.182.31261-.4518.18621-.665.18312-2.25144-.03271-4.49-.2614-6.72786-.4838-.85934-.08539-.85609-.118-.81338-1.03667a6.063,6.063,0,0,0-4.07721-6.41393.7263.7263,0,0,1-.52977-.92721c.59173-3.862,1.15634-7.72814,1.75528-11.589A4.62761,4.62761,0,0,1,221.15272,269.6035Z" transform="translate(-21.04629 -20.93539)"/><path class="cls-11" d="M257.11247,251.32477a28.65134,28.65134,0,0,1-.11622,3.7312c-.04979.52493-.24479.6208-.72459.55453q-7.08864-.979-14.18148-1.92808-2.5694-.34736-5.13975-.68756c-.76723-.10242-.7881-.10773-.58805-.79965q1.00845-3.48815,2.21569-6.91328c.195-.557.4807-.64807,1.00631-.55844q8.33107,1.42113,16.66658,2.81612c.80115.13556.82583.15092.85422.9832C257.137,249.45579,257.11247,250.3907,257.11247,251.32477Z" transform="translate(-21.04629 -20.93539)"/><path class="cls-11" d="M44.2285,251.20734c0-.90081-.032-1.80314.01008-2.702.03389-.72422.07192-.86719.876-.99338,3.62556-.569,7.24169-1.19814,10.8612-1.80568q2.81691-.4728,5.63358-.9469c.89021-.15092.901-.15937,1.19981.68068q1.1842,3.32889,2.15692,6.72615c.20565.71883.18776.72693-.55759.82735q-9.62606,1.2969-19.25238,2.59175c-.73877.09946-.73268.09824-.81183-.64144A23.86642,23.86642,0,0,1,44.2285,251.20734Z" transform="translate(-21.04629 -20.93539)"/><path class="cls-12" d="M51.2899,281.73718c1.60389-.16091,3.04434-.31,4.48576-.449,2.68266-.25866,5.36512-.52018,8.04921-.76327,1.65164-.14958,3.30687-.259,4.95886-.40485.42337-.0374.57721.14439.5536.5284-.17709,2.88009-.48876,5.73871-2.05849,8.25871a4.40345,4.40345,0,0,1-4.2859,2.382,22.31966,22.31966,0,0,1-4.0276-.2231,8.24682,8.24682,0,0,1-5.536-4.34066C52.63269,285.15717,51.98333,283.52188,51.2899,281.73718Z" transform="translate(-21.04629 -20.93539)"/><path class="cls-12" d="M249.9205,281.74065a2.82591,2.82591,0,0,1-.40862,1.333c-.48762,1.14537-.93478,2.31235-1.49578,3.42129a8.185,8.185,0,0,1-7.55054,4.78c-.69156.01945-1.38813-.04454-2.07543.01305-2.11293.17707-3.46188-.939-4.47459-2.60686a11.58827,11.58827,0,0,1-1.33788-3.57822,23.8473,23.8473,0,0,1-.57241-4.30846c-.02366-.69024.01955-.69758.702-.64091,3.6857.306,7.37308.59267,11.05658.923C245.82,281.26087,247.86972,281.517,249.9205,281.74065Z" transform="translate(-21.04629 -20.93539)"/><path class="cls-8" d="M81.39452,189.13244a84.66378,84.66378,0,0,0,8.86753-.835,39.43627,39.43627,0,0,0,8.01371-2.05466,80.39389,80.39389,0,0,0-2.12565,7.78781.54445.54445,0,0,1-.64949.50382c-.10308-.00784-.20734.00051-.31107.00049q-7.67538-.00027-15.35075-.00231c-.20131-.00008-.4026-.02329-.59382-.03509-.08545-.30256.08437-.49987.1859-.70982a37.65958,37.65958,0,0,0,1.71767-4.22071C81.20374,189.40549,81.22418,189.2274,81.39452,189.13244Z" transform="translate(-21.04629 -20.93539)"/><path class="cls-8" d="M67.90659,107.58613a13.36186,13.36186,0,0,0,5.71091,3.741,12.07118,12.07118,0,0,0,4.43109.83363c.64282,2.11363,1.16921,4.26265,1.92127,6.343.44481,1.23054.89941,2.45756,1.37418,3.75323a5.75667,5.75667,0,0,1-2.47087-.16419,13.24456,13.24456,0,0,1-10.61471-11.319C68.12125,109.71386,68.02288,108.64884,67.90659,107.58613Z" transform="translate(-21.04629 -20.93539)"/><path class="cls-8" d="M223.07283,90.739a2.52218,2.52218,0,0,1,.17238,1.32087c.02811,1.41884.01737,2.83843.03428,4.25756.008.67528.07977.73582.72454.51274a14.09442,14.09442,0,0,0,4.6557-2.66879,17.1574,17.1574,0,0,0,2.61435-2.80393,3.43629,3.43629,0,0,0,.74209-2.29808,9.61135,9.61135,0,0,1,.30423,2.55685,13.37484,13.37484,0,0,1-2.84669,11.09509,13.10206,13.10206,0,0,1-7.24245,4.47792,7.43186,7.43186,0,0,1,.24159-2.47568,71.40128,71.40128,0,0,0,.59419-11.90342A12.85754,12.85754,0,0,1,223.07283,90.739Z" transform="translate(-21.04629 -20.93539)"/><path class="cls-7" d="M182.6132,116.02823a6.20574,6.20574,0,0,1,1.60929-4.37931,4.712,4.712,0,0,1,5.03912-1.64507,4.65368,4.65368,0,0,1,3.359,4.1001,6.28873,6.28873,0,0,1-1.84125,5.70258,4.52924,4.52924,0,0,1-5.03436,1.25185,4.7676,4.7676,0,0,1-3.083-4.2015C182.62691,116.58308,182.62859,116.30457,182.6132,116.02823Z" transform="translate(-21.04629 -20.93539)"/><path class="cls-13" d="M211.36646,201.6164c-.12307-.81818-.27663-1.63335-.35857-2.45565-.05484-.55067-.3415-.70091-.82791-.67666-.27655.01376-.55438.00122-.83164.00122q-66.02391.00037-132.04786-.00041c-.3112,0-.62239-.01963-.93363-.03011a.9478.9478,0,0,1,.68639-.17436c.41586-.0031.83175-.00284,1.24763-.00284q65.60546-.00015,131.21091.00172,7.06932.00054,14.13856.05157c.642.0047,1.31232-.24837,1.93246.129a1.25888,1.25888,0,0,0-.16047,1.22616c.16912.75436.31941,1.555-.40927,2.16539a4.23,4.23,0,0,1-2.215-.007c-1.01887-.06825-2.03975-.10311-3.05741-.18888a42.93269,42.93269,0,0,0-6.2629.24063C212.78864,201.69425,212.02535,202.05,211.36646,201.6164Z" transform="translate(-21.04629 -20.93539)"/><path class="cls-4" d="M213.07931,283.32678c.23227-1.70914.45627-3.41948.69885-5.12718q.46621-3.28159.95677-6.55979c.30314-2.04948.61885-4.09714.92-6.14692.39155-2.66447.77028-5.33081,1.162-7.99523.30134-2.04958.61529-4.09723.92074-6.14621.05083-.34119.08686-.68463.12975-1.027.5133-.07033,1.02471-.17415,1.54032-.20277.66963-.03715.7393.05022.64525.69367-.34473,2.35821-.69971,4.71489-1.04952,7.07233q-.98878,6.663-1.97585,13.32624c-.56661,3.82729-1.14011,7.65358-1.68675,11.4837-.07571.53049-.29917.70952-.81112.66554C214.0488,283.32178,213.563,283.33666,213.07931,283.32678Z" transform="translate(-21.04629 -20.93539)"/><path class="cls-11" d="M60.81669,240.49841c.16059.10377.18668.28.24.44236.2162.65855.20542.69085-.45614.80145q-4.44626.74362-8.894,1.47812c-1.874.31268-3.74646.63446-5.62044.94724-.37364.06234-.751.10251-1.27508.17284a8.85119,8.85119,0,0,1,.582-2.58535c.70293-1.79047,2.36985-2.326,3.9319-2.94117a11.25113,11.25113,0,0,1,9.64783.2049A6.53705,6.53705,0,0,1,60.81669,240.49841Z" transform="translate(-21.04629 -20.93539)"/><path class="cls-11" d="M255.9464,241.75281a9.64081,9.64081,0,0,1,.58774,2.55178,23.00973,23.00973,0,0,1-3.11375-.458q-6.34047-1.04048-12.67739-2.10268c-.669-.11157-.6812-.14665-.4668-.79318a.79166.79166,0,0,1,.242-.44464c2.59357-2.63229,5.76306-3.04484,9.20671-2.37892a17.88552,17.88552,0,0,1,4.64194,1.77044C255.18748,240.31209,255.48086,241.08488,255.9464,241.75281Z" transform="translate(-21.04629 -20.93539)"/><path class="cls-14" d="M255.9464,241.75281a11.83046,11.83046,0,0,0-6.04586-3.16527,10.36586,10.36586,0,0,0-8.77287,1.64445c-.18.12459-.2989.4261-.60947.27406a15.02213,15.02213,0,0,1,3.28671-5.2247,5.81565,5.81565,0,0,1,6.57226-1.41847c.41925.15633.82154.35945,1.22736.55013a4.98091,4.98091,0,0,1,2.44415,2.42735A21.42565,21.42565,0,0,1,255.9464,241.75281Z" transform="translate(-21.04629 -20.93539)"/><path class="cls-14" d="M60.81669,240.49841c-.31148.16473-.43009-.14224-.60735-.26663a10.18627,10.18627,0,0,0-6.42153-1.98369,14.53446,14.53446,0,0,0-7.20046,2.37834c-.48181.3055-.66341.89586-1.19442,1.12864a19.77994,19.77994,0,0,1,2.53579-5.97792,1.735,1.735,0,0,1,.18539-.24875,6.63608,6.63608,0,0,1,9.18914-.46643A14.39394,14.39394,0,0,1,60.81669,240.49841Z" transform="translate(-21.04629 -20.93539)"/><path class="cls-15" d="M197.97852,152.34539a22.39585,22.39585,0,0,1,12.1067,15.67081C206.206,162.66875,202.26793,157.36754,197.97852,152.34539Z" transform="translate(-21.04629 -20.93539)"/><path class="cls-16" d="M225.13346,201.60607c-.00315-.51111-.0032-1.02225-.01031-1.53331-.00724-.52176-.356-.94728-.45764-1.42424.29974-.26625.63324-.09026.91726-.1886,1.50711.54122,2.0002,1.44026,1.73913,3.17083A1.53863,1.53863,0,0,1,225.13346,201.60607Z" transform="translate(-21.04629 -20.93539)"/><path class="cls-17" d="M225.13346,201.60607q1.09443.01181,2.18867.02415c-.1577,1.65526-.16654,1.68317-1.74873,1.18188a23.26456,23.26456,0,0,0-5.44339-1.04264,1.86142,1.86142,0,0,1-.39-.11406Q222.43739,201.631,225.13346,201.60607Z" transform="translate(-21.04629 -20.93539)"/><path class="cls-18" d="M295.658,70.79477a19.82806,19.82806,0,0,1,2.05786,6.36148,12.22456,12.22456,0,0,1,.21229,3.19237c-.58543,4.16507-2.72507,7.59556-5.33655,10.71512a28.93152,28.93152,0,0,1-32.16591,8.67076,2.71473,2.71473,0,0,1-1.37442-.88249,3.54428,3.54428,0,0,0-1.10484-2.76745,22.71366,22.71366,0,0,1-5.52665-19.37732,5.89146,5.89146,0,0,1,.19434-.69878c1.56959-5.16126,4.98788-8.86293,9.39194-11.73712a25.29172,25.29172,0,0,1,30.30264,2.323A19.03242,19.03242,0,0,1,295.658,70.79477Z" transform="translate(-21.04629 -20.93539)"/><path class="cls-19" d="M259.05129,98.852a26.90074,26.90074,0,0,1,2.93587.98359,36.13921,36.13921,0,0,0,6.19376,1.13531,27.08791,27.08791,0,0,0,11.98638-1.65377,28.04466,28.04466,0,0,0,9.79464-6.06694,29.25727,29.25727,0,0,0,6.6336-9.43376c.50325-1.12965.89165-2.31044,1.33263-3.46784a21.191,21.191,0,0,1-3.61174,12.87174,22.51407,22.51407,0,0,1-16.50469,10.36839,21.18884,21.18884,0,0,1-9.53045-.86586,3.15475,3.15475,0,0,0-2.57956.18078c-1.70185.85158-3.43395,1.64283-5.1546,2.45677-.3753.17752-.75138.35427-1.13349.51625-.78147.33131-.84817.30533-.81625-.50679C258.683,103.19311,258.77852,101.01613,259.05129,98.852Z" transform="translate(-21.04629 -20.93539)"/><path class="cls-20" d="M295.658,70.79477c-.75359-.856-1.46991-1.74851-2.26713-2.56172a23.80554,23.80554,0,0,0-14.0448-7.236,24.33941,24.33941,0,0,0-21.723,7.41912,23.488,23.488,0,0,0-4.53055,6.67345c-.14429.313-.31817.61237-.47836.91843a18.29424,18.29424,0,0,1,2.50976-6.66142c5.13434-8.33249,12.65512-12.30112,22.37427-11.36744,7.98441.767,13.91782,5.04118,17.84075,12.05451A7.06156,7.06156,0,0,1,295.658,70.79477Z" transform="translate(-21.04629 -20.93539)"/><path class="cls-3" d="M135.38921,249.97658c-.459-.59833-.867-1.19857-1.3444-1.73728-.82334-.92907-1.17309-1.88548-.33307-2.96443a1.3869,1.3869,0,0,0-.84288-.43093q-3.11048-1.01115-6.21971-2.02607c-.19748-.06437-.39842-.12058-.59072-.198-1.1946-.48126-1.52384-1.39806-.73568-2.37423a25.18643,25.18643,0,0,1,7.49665-6.64533,12.47252,12.47252,0,0,1,6.56812-1.63793,7.75725,7.75725,0,0,1,2.73349.54621,1.21848,1.21848,0,0,0,1.49047-.31409c.87035-.844,1.75652-1.67507,2.67915-2.461a19.14959,19.14959,0,0,1,10.90267-4.40007,26.397,26.397,0,0,1,8.87489.63532c2.527.62167,2.36534.79663,2.30443,2.91515a24.37493,24.37493,0,0,1-4.68031,14.28436,17.90113,17.90113,0,0,1-4.9676,4.52418c-.7657.47452-1.5263.95755-2.299,1.42048a.92706.92706,0,0,0-.51741,1.02047c.47307,3.46661-.90579,6.29276-3.10615,8.8172a18.89889,18.89889,0,0,1-5.21219,4.08284c-1.03024.56821-2.07925,1.10662-3.14387,1.60727-1.47941.69578-2.36108.18492-2.46036-1.4414-.12671-2.07522-.19588-4.154-.28923-6.23121-.01244-.277-.01347-.55471-.03317-.83111-.06689-.93783-.07268-.96055-1.00873-.81773a1.60673,1.60673,0,0,1-1.64712-.63236c-.50731-.659-1.0234-1.31162-1.51587-1.98161-.24116-.32812-.46181-.34137-.76823-.08968-.42805.35159-.86478.69682-1.32493,1.00413a1.40873,1.40873,0,0,1-1.966-.16644,1.36914,1.36914,0,0,1,.17814-1.95561C134.14324,250.96311,134.75791,250.51031,135.38921,249.97658Z" transform="translate(-21.04629 -20.93539)"/><path class="cls-21" d="M87.64335,228.16573a24.35424,24.35424,0,0,1,.62275-6.82812,7.2346,7.2346,0,0,1,.82934-2.009,1.95468,1.95468,0,0,1,3.24121-.43291,10.54141,10.54141,0,0,1,2.58795,4.09066,37.24748,37.24748,0,0,1,2.09846,8.7539c.36907,2.98007.86495,5.94574,1.17776,8.9311.24818,2.36838.52889,4.73466.70263,7.11313.16117,2.20614.28173,4.41426.44024,6.61827a54.89211,54.89211,0,0,1,.11829,5.91246,24.67391,24.67391,0,0,1-.58814,5.347,4.95413,4.95413,0,0,1-.62635,1.52953c-.45006.67278-.94235.7086-1.55508.1687a4.21016,4.21016,0,0,1-.98273-1.32527,55.57673,55.57673,0,0,1-2.8592-7.351c-.8858-2.69481-1.6584-5.42643-2.29215-8.1931-.87193-3.80643-1.62406-7.634-2.12423-11.51177A72.80011,72.80011,0,0,1,87.64335,228.16573Z" transform="translate(-21.04629 -20.93539)"/><path class="cls-22" d="M82.458,289.83435a4.24681,4.24681,0,0,1,2.00256-.4464c.2424.00394.485-.00022.72744-.00022q65.88648-.00012,131.773-.00361a5.1603,5.1603,0,0,1,2.52137.45084,6.72419,6.72419,0,0,1-4.94224,2.04417q-63.51777.01029-127.03557-.00455A6.65928,6.65928,0,0,1,82.458,289.83435Z" transform="translate(-21.04629 -20.93539)"/><path class="cls-5" d="M285.03936,77.36354a5.54,5.54,0,0,1-1.53893,4.10178q-3.46665,3.51254-6.97678,6.982a1.47658,1.47658,0,0,1-2.42684.01925c-2.338-2.31479-4.67388-4.63232-6.97183-6.98658a5.24084,5.24084,0,0,1-1.31389-5.38128c.98615-3.46035,4.76569-4.80785,7.95544-2.90929.56654.3372.97916,1.11277,1.57711,1.07825.53029-.03062.93362-.75548,1.48332-1.06452a5.37323,5.37323,0,0,1,5.53623-.22792A5.16178,5.16178,0,0,1,285.03936,77.36354Z" transform="translate(-21.04629 -20.93539)"/><path class="cls-5" d="M139.40805,250.54721c.95073-.73435,1.84929-1.43269,2.75242-2.12512q2.7611-2.11679,5.52516-4.22972a5.71816,5.71816,0,0,0,.71443-.60006,1.31022,1.31022,0,0,0,.09875-1.7909,1.35248,1.35248,0,0,0-1.77287-.33092,6.28429,6.28429,0,0,0-.75992.54113q-3.79494,2.90192-7.58437,5.81107c-.812.62664-.74486.47054-1.19137-.12807-.98758-1.324-1.03039-1.01793-.10744-2.36869,1.38629-2.02889,2.74476-4.07735,4.1625-6.084a40.28251,40.28251,0,0,1,6.119-6.76452,17.12,17.12,0,0,1,8.99486-4.18336,1.22975,1.22975,0,0,1,1.31922.55174q2.88585,3.80721,5.81765,7.57945a1.13783,1.13783,0,0,1,.11431,1.33042,16.73159,16.73159,0,0,1-5.364,6.88066,41.70485,41.70485,0,0,1-8.55176,4.642c-2.64319,1.12549-5.36846,2.01878-8.10131,2.89547a.95136.95136,0,0,1-1.30179-.42159C140.04378,251.34744,139.731,250.9825,139.40805,250.54721Z" transform="translate(-21.04629 -20.93539)"/><path class="cls-23" d="M153.10818,250.95991a6.50887,6.50887,0,0,1-.94769,4.1243,12.738,12.738,0,0,1-3.4236,3.84863,21.53794,21.53794,0,0,1-3.40315,2.17557c-.50835.26582-.62109.2178-.64961-.32424-.1035-1.96716-.17948-3.93575-.27022-5.9036a.634.634,0,0,1,.453-.71C147.56993,253.12755,150.267,252.06907,153.10818,250.95991Z" transform="translate(-21.04629 -20.93539)"/><path class="cls-23" d="M128.7483,240.5808c2.51887-2.66815,5.09712-4.858,8.59767-5.62747a7.85231,7.85231,0,0,1,2.78873-.02877c.5571.07909.63938.29184.29737.762-1.58622,2.1807-3.19069,4.34812-4.78173,6.52534a.70977.70977,0,0,1-.8812.33155C132.83487,241.90678,130.89728,241.28016,128.7483,240.5808Z" transform="translate(-21.04629 -20.93539)"/><path class="cls-24" d="M164.728,234.40458c-1.66746-2.18082-3.18317-4.16319-4.75328-6.21671a3.21083,3.21083,0,0,1,1.66466.04992c1.0659.08815,2.12393.26822,3.18876.37425.46127.046.67851.21156.66983.70195A20.48766,20.48766,0,0,1,164.728,234.40458Z" transform="translate(-21.04629 -20.93539)"/><path class="cls-3" d="M155.93388,240.94887a4.72938,4.72938,0,0,1-4.83746-4.76415,4.78825,4.78825,0,1,1,9.57609.02285A4.6855,4.6855,0,0,1,155.93388,240.94887Z" transform="translate(-21.04629 -20.93539)"/><path class="cls-25" d="M158.4054,236.09936a2.47515,2.47515,0,0,1-2.521,2.57583,2.52022,2.52022,0,0,1-.09277-5.03913A2.43891,2.43891,0,0,1,158.4054,236.09936Z" transform="translate(-21.04629 -20.93539)"/></svg>